<svg width="62" height="62" viewBox="0 0 62 62" fill="none" xmlns="http://www.w3.org/2000/svg">
<g clip-path="url(#clip0_1_1402)">
<path fill-rule="evenodd" clip-rule="evenodd" d="M56.4474 30.6752C56.4474 37.5262 53.7258 44.0966 48.8814 48.941C44.037 53.7854 37.4666 56.5069 30.6156 56.5069C23.7646 56.5069 17.1942 53.7854 12.3498 48.941C7.50545 44.0966 4.7839 37.5262 4.7839 30.6752C4.7839 23.8242 7.50545 17.2538 12.3498 12.4094C17.1942 7.56502 23.7646 4.84347 30.6156 4.84347C37.4666 4.84347 44.037 7.56502 48.8814 12.4094C53.7258 17.2538 56.4474 23.8242 56.4474 30.6752V30.6752ZM61.231 30.6752C61.231 38.7949 58.0055 46.5821 52.264 52.3236C46.5225 58.065 38.7353 61.2906 30.6156 61.2906C22.4959 61.2906 14.7088 58.065 8.96728 52.3236C3.22579 46.5821 0.000244141 38.7949 0.000244141 30.6752C0.000244141 22.5555 3.22579 14.7684 8.96728 9.02685C14.7088 3.28536 22.4959 0.0598145 30.6156 0.0598145C38.7353 0.0598145 46.5225 3.28536 52.264 9.02685C58.0055 14.7684 61.231 22.5555 61.231 30.6752V30.6752ZM28.5874 21.2227L35.1697 27.805H15.3079V33.5454H35.1697L28.5874 40.1277L32.6439 44.1842L44.1247 32.7035C44.6622 32.1653 44.9641 31.4358 44.9641 30.6752C44.9641 29.9146 44.6622 29.1851 44.1247 28.6469L32.6439 17.1662L28.5874 21.2227V21.2227Z" fill="white"/>
</g>
<defs>
<clipPath id="clip0_1_1402">
<rect width="61.2308" height="61.2308" fill="white" transform="translate(0.000244141 0.0585938)"/>
</clipPath>
</defs>
</svg>
