<svg width="417" height="149" viewBox="0 0 417 149" fill="none" xmlns="http://www.w3.org/2000/svg">
<mask id="mask0_1_2350" style="mask-type:alpha" maskUnits="userSpaceOnUse" x="0" y="0" width="417" height="149">
<rect width="417" height="149" fill="#D9D9D9"/>
</mask>
<g mask="url(#mask0_1_2350)">
<path d="M25.903 34.8513H36.5326V42.3427H37.14C37.7474 41.0604 38.5573 39.8793 39.5697 38.7995C40.6495 37.6521 41.8305 36.7073 43.1128 35.9649C44.4626 35.155 45.8462 34.5476 47.2634 34.1427C48.7482 33.6703 50.1655 33.4341 51.5153 33.4341C53.135 33.4341 54.5186 33.569 55.6659 33.839C56.8132 34.1089 57.8593 34.4801 58.8041 34.9526L55.5646 45.3797C54.8223 45.0422 53.9786 44.806 53.0338 44.671C52.1564 44.4686 51.0766 44.3673 49.7943 44.3673C47.9721 44.3673 46.2849 44.7385 44.7326 45.4809C43.2478 46.2233 41.9318 47.2356 40.7845 48.5179C39.6371 49.8002 38.726 51.3187 38.0511 53.0735C37.4437 54.8282 37.14 56.6842 37.14 58.6413V84.4561H25.903V34.8513ZM81.2307 81.6215L60.5789 34.8513H73.1319L86.7985 67.7524H87.3047L100.566 34.8513H113.018L81.9393 106.323H69.9937L81.2307 81.6215ZM113.865 34.8513H126.115L135.732 69.1697H136.137L147.272 34.8513H158.914L169.949 69.1697H170.354L179.87 34.8513H191.917L176.023 84.4561H164.179L152.942 49.7327H152.537L141.603 84.4561H129.759L113.865 34.8513ZM228.415 78.382H227.807C226.323 80.3392 224.399 82.1277 222.037 83.7474C219.675 85.2997 216.672 86.0758 213.027 86.0758C210.395 86.0758 207.932 85.6371 205.637 84.7598C203.342 83.9499 201.352 82.8026 199.664 81.3178C197.977 79.7655 196.627 77.9771 195.615 75.9524C194.67 73.8602 194.198 71.5656 194.198 69.0685C194.198 66.4364 194.704 64.0742 195.716 61.9821C196.796 59.8899 198.247 58.1352 200.069 56.7179C201.959 55.3006 204.186 54.2208 206.751 53.4784C209.315 52.6685 212.082 52.2636 215.052 52.2636C218.359 52.2636 221.126 52.601 223.353 53.2759C225.58 53.8833 227.267 54.457 228.415 54.9969V53.0735C228.415 51.5887 228.077 50.2052 227.402 48.9229C226.795 47.6406 225.918 46.5607 224.77 45.6834C223.691 44.7385 222.442 44.0299 221.025 43.5575C219.607 43.0175 218.123 42.7476 216.57 42.7476C214.073 42.7476 211.812 43.2538 209.788 44.2661C207.831 45.211 206.076 46.7632 204.524 48.9229L195.615 43.0513C197.977 39.8118 200.913 37.3822 204.422 35.7624C207.932 34.0752 211.914 33.2316 216.368 33.2316C223.724 33.2316 229.393 35.0538 233.375 38.6982C237.425 42.3427 239.449 47.5393 239.449 54.2883V84.4561H228.415V78.382ZM228.415 63.8043C226.93 62.9269 225.277 62.2183 223.454 61.6784C221.632 61.1385 219.54 60.8685 217.178 60.8685C213.668 60.8685 210.868 61.6784 208.775 63.2981C206.683 64.9179 205.637 66.8751 205.637 69.1697C205.637 70.3845 205.907 71.4643 206.447 72.4092C206.987 73.2866 207.662 74.0627 208.472 74.7376C209.349 75.4125 210.328 75.9186 211.407 76.2561C212.555 76.5935 213.702 76.7623 214.849 76.7623C216.672 76.7623 218.393 76.4248 220.012 75.7499C221.7 75.0075 223.151 74.0627 224.365 72.9154C225.58 71.7006 226.559 70.317 227.301 68.7648C228.044 67.2125 228.415 65.559 228.415 63.8043ZM250.022 34.8513H260.652V42.3427H261.259C261.866 41.0604 262.676 39.8793 263.689 38.7995C264.768 37.6521 265.949 36.7073 267.232 35.9649C268.582 35.155 269.965 34.5476 271.382 34.1427C272.867 33.6703 274.284 33.4341 275.634 33.4341C277.254 33.4341 278.637 33.569 279.785 33.839C280.932 34.1089 281.978 34.4801 282.923 34.9526L279.684 45.3797C278.941 45.0422 278.098 44.806 277.153 44.671C276.275 44.4686 275.196 44.3673 273.913 44.3673C272.091 44.3673 270.404 44.7385 268.852 45.4809C267.367 46.2233 266.051 47.2356 264.903 48.5179C263.756 49.8002 262.845 51.3187 262.17 53.0735C261.563 54.8282 261.259 56.6842 261.259 58.6413V84.4561H250.022V34.8513ZM323.467 78.0783H322.859C321.509 80.238 319.451 82.1277 316.684 83.7474C313.917 85.2997 310.61 86.0758 306.763 86.0758C303.591 86.0758 300.554 85.4347 297.652 84.1524C294.817 82.8026 292.32 80.9466 290.161 78.5845C288.001 76.2223 286.28 73.4553 284.998 70.2833C283.715 67.0438 283.074 63.5006 283.074 59.6537C283.074 55.8068 283.715 52.2973 284.998 49.1253C286.28 45.8858 288.001 43.085 290.161 40.7229C292.32 38.3608 294.817 36.5386 297.652 35.2563C300.554 33.9065 303.591 33.2316 306.763 33.2316C310.61 33.2316 313.917 34.0415 316.684 35.6612C319.451 37.2135 321.509 39.0694 322.859 41.2291H323.467L322.859 34.3452V11.9724H334.096V84.4561H323.467V78.0783ZM308.889 75.6487C310.779 75.6487 312.601 75.2775 314.355 74.5351C316.178 73.7927 317.73 72.7466 319.012 71.3969C320.362 70.0471 321.442 68.3936 322.252 66.4364C323.062 64.4117 323.467 62.1508 323.467 59.6537C323.467 57.1566 323.062 54.9294 322.252 52.9722C321.442 50.9476 320.362 49.2603 319.012 47.9105C317.73 46.5607 316.178 45.5147 314.355 44.7723C312.601 44.0299 310.779 43.6587 308.889 43.6587C306.932 43.6587 305.076 44.0299 303.321 44.7723C301.566 45.5147 300.014 46.5945 298.664 48.0118C297.382 49.3616 296.336 51.015 295.526 52.9722C294.716 54.9294 294.311 57.1566 294.311 59.6537C294.311 62.1508 294.716 64.378 295.526 66.3351C296.336 68.2923 297.382 69.9796 298.664 71.3969C300.014 72.7466 301.566 73.7927 303.321 74.5351C305.076 75.2775 306.932 75.6487 308.889 75.6487ZM363.758 86.0758C360.721 86.0758 357.988 85.6709 355.559 84.861C353.129 84.0511 351.003 83.005 349.181 81.7227C347.359 80.3729 345.806 78.8544 344.524 77.1672C343.309 75.48 342.364 73.7252 341.689 71.903L351.813 67.6512C352.96 70.5532 354.614 72.7129 356.773 74.1302C358.933 75.48 361.261 76.1549 363.758 76.1549C366.593 76.1549 368.82 75.5812 370.44 74.4339C372.06 73.2866 372.87 72.0043 372.87 70.587C372.87 69.1697 372.262 67.9549 371.047 66.9425C369.833 65.8627 367.538 64.9179 364.163 64.108L357.077 62.387C355.525 62.0496 353.939 61.5434 352.319 60.8685C350.767 60.1261 349.316 59.215 347.966 58.1352C346.616 56.9879 345.503 55.6381 344.625 54.0858C343.815 52.4661 343.41 50.5764 343.41 48.4167C343.41 45.9871 343.917 43.8274 344.929 41.9377C346.009 40.048 347.46 38.462 349.282 37.1797C351.104 35.8974 353.196 34.9188 355.559 34.2439C357.988 33.569 360.553 33.2316 363.252 33.2316C365.479 33.2316 367.605 33.4678 369.63 33.9402C371.722 34.4126 373.646 35.1213 375.4 36.0661C377.155 37.011 378.707 38.2258 380.057 39.7106C381.474 41.1278 382.588 42.8151 383.398 44.7723L373.477 48.9229C372.532 46.7632 371.047 45.211 369.023 44.2661C366.998 43.2538 364.94 42.7476 362.847 42.7476C361.903 42.7476 360.924 42.8826 359.912 43.1525C358.967 43.355 358.089 43.6924 357.28 44.1649C356.537 44.5698 355.896 45.1097 355.356 45.7846C354.884 46.4595 354.647 47.2019 354.647 48.0118C354.647 49.3616 355.221 50.4414 356.368 51.2513C357.583 51.9936 359.405 52.6685 361.835 53.2759L369.428 55.1994C374.557 56.4817 378.302 58.4389 380.665 61.071C383.094 63.6356 384.309 66.6726 384.309 70.182C384.309 72.3417 383.803 74.3664 382.791 76.2561C381.846 78.1458 380.462 79.833 378.64 81.3178C376.818 82.8026 374.624 83.9499 372.06 84.7598C369.563 85.6371 366.796 86.0758 363.758 86.0758Z" fill="white"/>
<path d="M125.901 104.626H129.516V110.169H129.757C130.159 109.286 130.701 108.462 131.384 107.699C132.067 106.895 132.83 106.192 133.674 105.59C134.558 104.987 135.502 104.525 136.506 104.204C137.551 103.842 138.615 103.662 139.7 103.662C142.15 103.662 144.159 104.304 145.726 105.59C147.292 106.875 148.357 108.502 148.919 110.471C149.884 108.543 151.269 106.936 153.077 105.65C154.885 104.324 157.054 103.662 159.585 103.662C161.353 103.662 162.859 103.963 164.104 104.565C165.39 105.128 166.434 105.931 167.238 106.976C168.082 108.02 168.684 109.266 169.046 110.712C169.447 112.158 169.648 113.725 169.648 115.412V134.152H165.792V116.075C165.792 113.142 165.229 110.933 164.104 109.446C162.98 107.92 161.152 107.157 158.621 107.157C157.295 107.157 156.07 107.478 154.945 108.121C153.861 108.723 152.917 109.547 152.113 110.591C151.35 111.596 150.747 112.781 150.305 114.147C149.904 115.472 149.703 116.858 149.703 118.304V134.152H145.846V116.195C145.846 113.182 145.264 110.933 144.099 109.446C142.974 107.92 141.186 107.157 138.736 107.157C137.37 107.157 136.125 107.478 135 108.121C133.915 108.763 132.971 109.627 132.168 110.712C131.404 111.796 130.802 113.042 130.36 114.448C129.958 115.814 129.757 117.24 129.757 118.726V134.152H125.901V104.626ZM202.418 127.162C201.896 128.247 201.233 129.271 200.429 130.236C199.626 131.2 198.682 132.043 197.597 132.766C196.553 133.49 195.348 134.052 193.982 134.454C192.616 134.896 191.11 135.116 189.462 135.116C187.333 135.116 185.365 134.735 183.557 133.972C181.749 133.168 180.183 132.063 178.857 130.657C177.571 129.251 176.567 127.604 175.844 125.716C175.121 123.788 174.759 121.679 174.759 119.389C174.759 117.26 175.081 115.251 175.724 113.363C176.406 111.435 177.371 109.768 178.616 108.362C179.861 106.916 181.368 105.771 183.135 104.927C184.903 104.083 186.891 103.662 189.101 103.662C191.23 103.662 193.138 104.043 194.825 104.806C196.553 105.53 198.019 106.574 199.224 107.94C200.429 109.266 201.353 110.873 201.996 112.761C202.679 114.649 203.021 116.738 203.021 119.027C203.021 119.148 203.021 119.269 203.021 119.389C202.98 119.51 202.96 119.61 202.96 119.69V120.052H178.676C178.716 122.101 179.078 123.848 179.761 125.294C180.444 126.741 181.307 127.946 182.352 128.91C183.396 129.834 184.561 130.517 185.847 130.959C187.132 131.401 188.378 131.621 189.583 131.621C192.074 131.621 194.042 131.059 195.488 129.934C196.935 128.769 198.14 127.303 199.104 125.535L202.418 127.162ZM198.983 116.798C198.943 115.834 198.742 114.789 198.381 113.664C198.019 112.54 197.457 111.495 196.693 110.531C195.93 109.567 194.906 108.763 193.62 108.121C192.375 107.478 190.828 107.157 188.98 107.157C187.775 107.157 186.61 107.378 185.485 107.819C184.361 108.221 183.336 108.824 182.412 109.627C181.528 110.431 180.765 111.435 180.122 112.64C179.52 113.845 179.118 115.231 178.917 116.798H198.983ZM208.403 134.152V104.626H212.018V109.808H212.259C212.541 108.924 212.982 108.121 213.585 107.398C214.228 106.634 214.931 105.992 215.694 105.469C216.498 104.907 217.321 104.485 218.165 104.204C219.049 103.923 219.892 103.782 220.696 103.782C221.62 103.782 222.383 103.842 222.985 103.963C223.588 104.083 224.17 104.284 224.733 104.565L223.528 108.181C222.724 107.779 221.62 107.578 220.214 107.578C219.169 107.578 218.165 107.84 217.201 108.362C216.236 108.844 215.393 109.527 214.67 110.411C213.947 111.294 213.364 112.359 212.922 113.604C212.48 114.809 212.259 116.135 212.259 117.581V134.152H208.403ZM252.553 126.68C252.031 127.885 251.368 129.01 250.565 130.055C249.802 131.059 248.898 131.943 247.853 132.706C246.809 133.429 245.604 134.012 244.238 134.454C242.872 134.896 241.365 135.116 239.718 135.116C237.589 135.116 235.621 134.715 233.813 133.911C232.005 133.108 230.439 132.003 229.113 130.597C227.827 129.191 226.803 127.544 226.04 125.656C225.317 123.728 224.955 121.639 224.955 119.389C224.955 117.139 225.317 115.071 226.04 113.182C226.803 111.254 227.827 109.587 229.113 108.181C230.439 106.775 232.005 105.67 233.813 104.867C235.621 104.063 237.589 103.662 239.718 103.662C241.365 103.662 242.852 103.883 244.178 104.324C245.543 104.726 246.749 105.309 247.793 106.072C248.878 106.835 249.802 107.719 250.565 108.723C251.328 109.728 251.951 110.832 252.433 112.038L248.998 113.544C248.114 111.495 246.889 109.928 245.322 108.844C243.756 107.719 241.827 107.157 239.538 107.157C238.172 107.157 236.846 107.458 235.561 108.06C234.275 108.623 233.13 109.446 232.126 110.531C231.122 111.576 230.318 112.861 229.716 114.388C229.113 115.874 228.812 117.541 228.812 119.389C228.812 121.237 229.113 122.924 229.716 124.451C230.318 125.937 231.122 127.223 232.126 128.307C233.13 129.352 234.275 130.175 235.561 130.778C236.846 131.34 238.172 131.621 239.538 131.621C241.827 131.621 243.776 131.079 245.383 129.995C246.99 128.87 248.235 127.283 249.119 125.234L252.553 126.68ZM257.657 91.0073H261.514V105.59L261.273 110.29H261.514C262.438 108.362 263.803 106.775 265.611 105.53C267.419 104.284 269.588 103.662 272.119 103.662C273.967 103.662 275.574 103.963 276.94 104.565C278.306 105.168 279.431 106.012 280.314 107.096C281.238 108.141 281.901 109.406 282.303 110.893C282.745 112.339 282.966 113.926 282.966 115.653V134.152H279.109V116.316C279.109 113.223 278.406 110.933 277 109.446C275.594 107.92 273.666 107.157 271.215 107.157C269.809 107.157 268.524 107.478 267.359 108.121C266.194 108.763 265.169 109.607 264.286 110.652C263.402 111.696 262.719 112.921 262.237 114.327C261.755 115.733 261.514 117.18 261.514 118.666V134.152H257.657V91.0073ZM309.677 128.91H309.436C308.431 130.637 307.025 132.104 305.217 133.309C303.45 134.514 301.381 135.116 299.011 135.116C297.404 135.116 295.918 134.855 294.552 134.333C293.186 133.851 292.001 133.188 290.996 132.345C289.992 131.461 289.209 130.416 288.646 129.211C288.084 128.006 287.803 126.7 287.803 125.294C287.803 123.687 288.124 122.261 288.767 121.016C289.45 119.771 290.354 118.726 291.479 117.883C292.644 117.039 293.969 116.416 295.456 116.015C296.982 115.573 298.589 115.352 300.276 115.352C302.285 115.352 304.093 115.593 305.699 116.075C307.306 116.517 308.632 117.039 309.677 117.642V115.834C309.677 114.508 309.436 113.303 308.953 112.218C308.471 111.134 307.829 110.21 307.025 109.446C306.222 108.683 305.258 108.101 304.133 107.699C303.048 107.297 301.903 107.096 300.698 107.096C298.89 107.096 297.283 107.498 295.877 108.301C294.471 109.065 293.306 110.19 292.382 111.676L289.008 109.567C290.173 107.759 291.76 106.333 293.768 105.289C295.777 104.204 298.047 103.662 300.578 103.662C302.546 103.662 304.314 103.963 305.88 104.565C307.447 105.128 308.793 105.951 309.918 107.036C311.042 108.081 311.906 109.346 312.509 110.832C313.111 112.279 313.413 113.906 313.413 115.713V134.152H309.677V128.91ZM309.677 121.016C308.471 120.293 307.146 119.71 305.699 119.269C304.293 118.786 302.687 118.545 300.879 118.545C299.553 118.545 298.328 118.706 297.203 119.027C296.118 119.349 295.154 119.811 294.311 120.413C293.507 120.976 292.864 121.679 292.382 122.522C291.94 123.366 291.72 124.31 291.72 125.355C291.72 126.319 291.92 127.203 292.322 128.006C292.764 128.769 293.347 129.432 294.07 129.995C294.793 130.517 295.596 130.939 296.48 131.26C297.404 131.541 298.348 131.682 299.312 131.682C300.638 131.682 301.923 131.401 303.169 130.838C304.414 130.276 305.519 129.512 306.483 128.548C307.447 127.544 308.21 126.399 308.773 125.114C309.375 123.828 309.677 122.462 309.677 121.016ZM323.708 110.169H323.949C324.431 109.286 325.014 108.462 325.697 107.699C326.38 106.895 327.163 106.192 328.047 105.59C328.971 104.987 329.975 104.525 331.06 104.204C332.144 103.842 333.309 103.662 334.555 103.662C336.363 103.662 337.949 103.963 339.315 104.565C340.681 105.128 341.806 105.951 342.69 107.036C343.614 108.081 344.297 109.346 344.738 110.832C345.18 112.279 345.401 113.885 345.401 115.653V134.152H341.545V116.316C341.545 113.142 340.842 110.832 339.436 109.386C338.03 107.9 336.061 107.157 333.53 107.157C332.124 107.157 330.839 107.478 329.674 108.121C328.509 108.723 327.505 109.567 326.661 110.652C325.817 111.696 325.155 112.901 324.672 114.267C324.19 115.633 323.949 117.059 323.949 118.545V134.152H320.093V104.626H323.708V110.169ZM354.125 108.121H348.762V104.626H354.125V95.587H357.981V104.626H365.333V108.121H357.981V125.897C357.981 127.624 358.403 128.91 359.247 129.753C360.05 130.637 361.014 131.079 362.139 131.079C362.742 131.079 363.244 131.039 363.645 130.959C364.087 130.838 364.569 130.657 365.092 130.416L366.297 133.731C365.614 134.052 364.911 134.273 364.188 134.393C363.505 134.554 362.681 134.634 361.717 134.634C359.628 134.634 357.861 133.972 356.414 132.646C355.691 131.963 355.129 131.139 354.727 130.175C354.326 129.171 354.125 127.966 354.125 126.56V108.121Z" fill="#D0D0D0"/>
</g>
</svg>
