<svg width="764" height="819" viewBox="0 0 764 819" fill="none" xmlns="http://www.w3.org/2000/svg">
<g filter="url(#filter0_d_1_283)">
<rect x="127.559" y="50.6133" width="540.566" height="597.311" rx="16.0931" fill="white"/>
</g>
<path d="M184.842 128.325C184.842 130.331 184.48 132.064 183.756 133.525C183.031 134.987 182.038 136.113 180.775 136.906C179.512 137.698 178.069 138.094 176.447 138.094C174.825 138.094 173.383 137.698 172.12 136.906C170.857 136.113 169.863 134.987 169.139 133.525C168.414 132.064 168.052 130.331 168.052 128.325C168.052 126.319 168.414 124.586 169.139 123.124C169.863 121.663 170.857 120.537 172.12 119.744C173.383 118.952 174.825 118.555 176.447 118.555C178.069 118.555 179.512 118.952 180.775 119.744C182.038 120.537 183.031 121.663 183.756 123.124C184.48 124.586 184.842 126.319 184.842 128.325ZM182.614 128.325C182.614 126.678 182.338 125.288 181.787 124.155C181.242 123.022 180.502 122.165 179.567 121.583C178.639 121.001 177.599 120.71 176.447 120.71C175.296 120.71 174.252 121.001 173.318 121.583C172.389 122.165 171.649 123.022 171.098 124.155C170.553 125.288 170.281 126.678 170.281 128.325C170.281 129.972 170.553 131.362 171.098 132.495C171.649 133.628 172.389 134.485 173.318 135.067C174.252 135.649 175.296 135.94 176.447 135.94C177.599 135.94 178.639 135.649 179.567 135.067C180.502 134.485 181.242 133.628 181.787 132.495C182.338 131.362 182.614 129.972 182.614 128.325ZM197.407 132.002V123.57H199.599V137.834H197.407V135.42H197.259C196.924 136.144 196.404 136.76 195.698 137.268C194.993 137.769 194.101 138.02 193.024 138.02C192.132 138.02 191.34 137.825 190.646 137.435C189.953 137.039 189.408 136.445 189.012 135.652C188.616 134.853 188.418 133.847 188.418 132.634V123.57H190.609V132.485C190.609 133.525 190.9 134.355 191.482 134.974C192.07 135.593 192.82 135.903 193.73 135.903C194.274 135.903 194.829 135.764 195.392 135.485C195.962 135.206 196.438 134.779 196.822 134.203C197.212 133.628 197.407 132.894 197.407 132.002ZM203.613 137.834V123.57H205.73V125.725H205.879C206.139 125.019 206.609 124.446 207.29 124.007C207.972 123.567 208.739 123.347 209.594 123.347C209.755 123.347 209.956 123.35 210.197 123.357C210.439 123.363 210.621 123.372 210.745 123.384V125.613C210.671 125.595 210.501 125.567 210.234 125.53C209.974 125.486 209.699 125.465 209.408 125.465C208.714 125.465 208.095 125.61 207.551 125.901C207.012 126.186 206.585 126.582 206.269 127.09C205.959 127.591 205.805 128.164 205.805 128.808V137.834H203.613ZM219.955 120.858V118.815H234.219V120.858H228.239V137.834H225.936V120.858H219.955ZM241.203 138.132C239.915 138.132 238.785 137.825 237.813 137.212C236.848 136.599 236.092 135.742 235.547 134.64C235.009 133.538 234.74 132.25 234.74 130.777C234.74 129.291 235.009 127.994 235.547 126.885C236.092 125.777 236.848 124.917 237.813 124.304C238.785 123.691 239.915 123.384 241.203 123.384C242.491 123.384 243.618 123.691 244.583 124.304C245.555 124.917 246.311 125.777 246.849 126.885C247.394 127.994 247.667 129.291 247.667 130.777C247.667 132.25 247.394 133.538 246.849 134.64C246.311 135.742 245.555 136.599 244.583 137.212C243.618 137.825 242.491 138.132 241.203 138.132ZM241.203 136.163C242.181 136.163 242.986 135.912 243.618 135.411C244.249 134.909 244.717 134.25 245.02 133.433C245.323 132.615 245.475 131.73 245.475 130.777C245.475 129.823 245.323 128.935 245.02 128.111C244.717 127.288 244.249 126.622 243.618 126.115C242.986 125.607 242.181 125.353 241.203 125.353C240.225 125.353 239.42 125.607 238.789 126.115C238.157 126.622 237.69 127.288 237.386 128.111C237.083 128.935 236.931 129.823 236.931 130.777C236.931 131.73 237.083 132.615 237.386 133.433C237.69 134.25 238.157 134.909 238.789 135.411C239.42 135.912 240.225 136.163 241.203 136.163ZM251.012 143.184V123.57H253.129V125.836H253.389C253.55 125.588 253.773 125.273 254.058 124.889C254.349 124.499 254.764 124.152 255.303 123.849C255.847 123.539 256.584 123.384 257.513 123.384C258.714 123.384 259.773 123.685 260.689 124.285C261.605 124.886 262.32 125.737 262.834 126.839C263.348 127.941 263.605 129.241 263.605 130.739C263.605 132.25 263.348 133.56 262.834 134.668C262.32 135.77 261.608 136.624 260.698 137.231C259.788 137.831 258.739 138.132 257.55 138.132C256.634 138.132 255.9 137.98 255.349 137.677C254.798 137.367 254.374 137.017 254.077 136.627C253.78 136.231 253.55 135.903 253.389 135.643H253.204V143.184H251.012ZM253.167 130.702C253.167 131.78 253.324 132.73 253.64 133.553C253.956 134.371 254.417 135.011 255.024 135.476C255.631 135.934 256.374 136.163 257.253 136.163C258.169 136.163 258.934 135.921 259.547 135.439C260.166 134.949 260.63 134.293 260.94 133.47C261.255 132.64 261.413 131.718 261.413 130.702C261.413 129.699 261.258 128.795 260.949 127.991C260.645 127.18 260.184 126.539 259.565 126.068C258.952 125.592 258.181 125.353 257.253 125.353C256.361 125.353 255.612 125.579 255.005 126.031C254.399 126.477 253.941 127.102 253.631 127.907C253.321 128.706 253.167 129.637 253.167 130.702ZM273.56 120.858V118.815H287.824V120.858H281.844V137.834H279.541V120.858H273.56ZM289.601 137.834V123.57H291.718V125.725H291.866C292.126 125.019 292.597 124.446 293.278 124.007C293.959 123.567 294.727 123.347 295.581 123.347C295.742 123.347 295.943 123.35 296.185 123.357C296.426 123.363 296.609 123.372 296.733 123.384V125.613C296.658 125.595 296.488 125.567 296.222 125.53C295.962 125.486 295.686 125.465 295.395 125.465C294.702 125.465 294.083 125.61 293.538 125.901C292.999 126.186 292.572 126.582 292.256 127.09C291.947 127.591 291.792 128.164 291.792 128.808V137.834H289.601ZM303.528 138.169C302.624 138.169 301.804 137.999 301.067 137.658C300.33 137.311 299.745 136.813 299.312 136.163C298.879 135.507 298.662 134.714 298.662 133.785C298.662 132.968 298.823 132.306 299.145 131.798C299.467 131.284 299.897 130.882 300.436 130.591C300.974 130.3 301.569 130.083 302.219 129.941C302.875 129.792 303.534 129.675 304.197 129.588C305.064 129.476 305.766 129.393 306.305 129.337C306.85 129.275 307.246 129.173 307.494 129.031C307.747 128.888 307.874 128.641 307.874 128.288V128.213C307.874 127.297 307.624 126.585 307.122 126.078C306.627 125.57 305.875 125.316 304.865 125.316C303.819 125.316 302.999 125.545 302.404 126.003C301.81 126.461 301.392 126.951 301.151 127.471L299.071 126.728C299.442 125.861 299.937 125.186 300.556 124.703C301.182 124.214 301.863 123.874 302.6 123.682C303.342 123.483 304.073 123.384 304.791 123.384C305.249 123.384 305.776 123.44 306.37 123.552C306.97 123.657 307.549 123.877 308.107 124.211C308.67 124.545 309.137 125.05 309.509 125.725C309.88 126.399 310.066 127.303 310.066 128.436V137.834H307.874V135.903H307.763C307.614 136.212 307.367 136.544 307.02 136.897C306.673 137.249 306.212 137.55 305.636 137.797C305.06 138.045 304.358 138.169 303.528 138.169ZM303.863 136.2C304.729 136.2 305.46 136.03 306.054 135.689C306.655 135.349 307.107 134.909 307.41 134.371C307.72 133.832 307.874 133.265 307.874 132.671V130.665C307.781 130.777 307.577 130.879 307.261 130.972C306.952 131.058 306.593 131.136 306.184 131.204C305.782 131.266 305.389 131.321 305.005 131.371C304.627 131.414 304.321 131.451 304.085 131.482C303.516 131.557 302.983 131.677 302.488 131.845C301.999 132.006 301.603 132.25 301.299 132.578C301.002 132.9 300.854 133.34 300.854 133.897C300.854 134.658 301.135 135.234 301.699 135.624C302.268 136.008 302.99 136.2 303.863 136.2ZM319.861 138.132C318.524 138.132 317.372 137.816 316.406 137.184C315.441 136.553 314.698 135.683 314.178 134.575C313.658 133.467 313.398 132.201 313.398 130.777C313.398 129.328 313.664 128.049 314.196 126.941C314.735 125.827 315.484 124.957 316.444 124.332C317.409 123.7 318.536 123.384 319.824 123.384C320.827 123.384 321.731 123.57 322.536 123.942C323.341 124.313 324 124.833 324.514 125.502C325.028 126.17 325.346 126.951 325.47 127.842H323.279C323.111 127.192 322.74 126.616 322.164 126.115C321.595 125.607 320.827 125.353 319.861 125.353C319.007 125.353 318.258 125.576 317.614 126.022C316.976 126.461 316.478 127.084 316.119 127.888C315.766 128.687 315.589 129.625 315.589 130.702C315.589 131.804 315.763 132.764 316.109 133.581C316.462 134.398 316.957 135.033 317.595 135.485C318.239 135.937 318.994 136.163 319.861 136.163C320.431 136.163 320.948 136.064 321.412 135.866C321.876 135.668 322.269 135.383 322.591 135.011C322.913 134.64 323.142 134.194 323.279 133.674H325.47C325.346 134.516 325.04 135.274 324.551 135.949C324.068 136.618 323.427 137.15 322.629 137.547C321.836 137.937 320.914 138.132 319.861 138.132ZM330.717 132.634L330.68 129.922H331.126L337.366 123.57H340.078L333.429 130.294H333.243L330.717 132.634ZM328.674 137.834V118.815H330.866V137.834H328.674ZM337.738 137.834L332.166 130.777L333.726 129.254L340.524 137.834H337.738ZM350.551 137.834V118.815H356.978C358.463 118.815 359.683 119.069 360.637 119.577C361.59 120.078 362.296 120.769 362.754 121.648C363.212 122.527 363.441 123.527 363.441 124.647C363.441 125.768 363.212 126.762 362.754 127.628C362.296 128.495 361.593 129.176 360.646 129.671C359.699 130.161 358.488 130.405 357.015 130.405H351.814V128.325H356.94C357.956 128.325 358.773 128.176 359.392 127.879C360.017 127.582 360.469 127.161 360.748 126.616C361.033 126.065 361.175 125.409 361.175 124.647C361.175 123.886 361.033 123.22 360.748 122.651C360.463 122.081 360.008 121.642 359.383 121.332C358.758 121.016 357.931 120.858 356.903 120.858H352.854V137.834H350.551ZM359.504 129.291L364.184 137.834H361.509L356.903 129.291H359.504ZM372.809 138.132C371.435 138.132 370.249 137.828 369.252 137.222C368.262 136.609 367.497 135.754 366.958 134.658C366.426 133.556 366.16 132.275 366.16 130.814C366.16 129.353 366.426 128.065 366.958 126.951C367.497 125.83 368.246 124.957 369.206 124.332C370.172 123.7 371.298 123.384 372.586 123.384C373.329 123.384 374.063 123.508 374.787 123.756C375.511 124.004 376.171 124.406 376.765 124.963C377.359 125.514 377.833 126.245 378.186 127.155C378.539 128.065 378.715 129.185 378.715 130.517V131.445H367.72V129.551H376.487C376.487 128.746 376.326 128.028 376.004 127.396C375.688 126.765 375.236 126.266 374.648 125.901C374.066 125.536 373.379 125.353 372.586 125.353C371.713 125.353 370.958 125.57 370.32 126.003C369.689 126.43 369.203 126.988 368.862 127.675C368.522 128.362 368.351 129.099 368.351 129.885V131.148C368.351 132.225 368.537 133.139 368.909 133.888C369.286 134.631 369.809 135.197 370.478 135.587C371.147 135.971 371.924 136.163 372.809 136.163C373.385 136.163 373.905 136.082 374.369 135.921C374.84 135.754 375.245 135.507 375.586 135.178C375.926 134.844 376.189 134.429 376.375 133.934L378.492 134.528C378.27 135.247 377.895 135.878 377.369 136.423C376.843 136.962 376.192 137.383 375.419 137.686C374.645 137.983 373.775 138.132 372.809 138.132ZM387.844 138.132C386.507 138.132 385.355 137.816 384.389 137.184C383.424 136.553 382.681 135.683 382.161 134.575C381.641 133.467 381.381 132.201 381.381 130.777C381.381 129.328 381.647 128.049 382.179 126.941C382.718 125.827 383.467 124.957 384.427 124.332C385.392 123.7 386.519 123.384 387.807 123.384C388.81 123.384 389.714 123.57 390.519 123.942C391.324 124.313 391.983 124.833 392.497 125.502C393.011 126.17 393.329 126.951 393.453 127.842H391.262C391.094 127.192 390.723 126.616 390.147 126.115C389.578 125.607 388.81 125.353 387.844 125.353C386.99 125.353 386.241 125.576 385.597 126.022C384.959 126.461 384.461 127.084 384.102 127.888C383.749 128.687 383.572 129.625 383.572 130.702C383.572 131.804 383.746 132.764 384.092 133.581C384.445 134.398 384.94 135.033 385.578 135.485C386.222 135.937 386.977 136.163 387.844 136.163C388.414 136.163 388.931 136.064 389.395 135.866C389.859 135.668 390.252 135.383 390.574 135.011C390.896 134.64 391.125 134.194 391.262 133.674H393.453C393.329 134.516 393.023 135.274 392.534 135.949C392.051 136.618 391.41 137.15 390.612 137.547C389.819 137.937 388.897 138.132 387.844 138.132ZM402.452 138.132C401.164 138.132 400.034 137.825 399.062 137.212C398.097 136.599 397.341 135.742 396.796 134.64C396.258 133.538 395.989 132.25 395.989 130.777C395.989 129.291 396.258 127.994 396.796 126.885C397.341 125.777 398.097 124.917 399.062 124.304C400.034 123.691 401.164 123.384 402.452 123.384C403.74 123.384 404.867 123.691 405.832 124.304C406.804 124.917 407.56 125.777 408.098 126.885C408.643 127.994 408.916 129.291 408.916 130.777C408.916 132.25 408.643 133.538 408.098 134.64C407.56 135.742 406.804 136.599 405.832 137.212C404.867 137.825 403.74 138.132 402.452 138.132ZM402.452 136.163C403.43 136.163 404.235 135.912 404.867 135.411C405.498 134.909 405.965 134.25 406.269 133.433C406.572 132.615 406.724 131.73 406.724 130.777C406.724 129.823 406.572 128.935 406.269 128.111C405.965 127.288 405.498 126.622 404.867 126.115C404.235 125.607 403.43 125.353 402.452 125.353C401.474 125.353 400.669 125.607 400.037 126.115C399.406 126.622 398.939 127.288 398.635 128.111C398.332 128.935 398.18 129.823 398.18 130.777C398.18 131.73 398.332 132.615 398.635 133.433C398.939 134.25 399.406 134.909 400.037 135.411C400.669 135.912 401.474 136.163 402.452 136.163ZM412.261 137.834V123.57H414.378V125.725H414.527C414.787 125.019 415.258 124.446 415.939 124.007C416.62 123.567 417.387 123.347 418.242 123.347C418.403 123.347 418.604 123.35 418.845 123.357C419.087 123.363 419.269 123.372 419.393 123.384V125.613C419.319 125.595 419.149 125.567 418.882 125.53C418.622 125.486 418.347 125.465 418.056 125.465C417.363 125.465 416.743 125.61 416.199 125.901C415.66 126.186 415.233 126.582 414.917 127.09C414.607 127.591 414.453 128.164 414.453 128.808V137.834H412.261ZM426.943 138.132C425.755 138.132 424.705 137.831 423.795 137.231C422.885 136.624 422.173 135.77 421.659 134.668C421.145 133.56 420.888 132.25 420.888 130.739C420.888 129.241 421.145 127.941 421.659 126.839C422.173 125.737 422.888 124.886 423.804 124.285C424.721 123.685 425.779 123.384 426.98 123.384C427.909 123.384 428.643 123.539 429.181 123.849C429.726 124.152 430.141 124.499 430.426 124.889C430.717 125.273 430.943 125.588 431.104 125.836H431.289V118.815H433.481V137.834H431.364V135.643H431.104C430.943 135.903 430.714 136.231 430.416 136.627C430.119 137.017 429.695 137.367 429.144 137.677C428.593 137.98 427.86 138.132 426.943 138.132ZM427.24 136.163C428.12 136.163 428.863 135.934 429.469 135.476C430.076 135.011 430.537 134.371 430.853 133.553C431.169 132.73 431.327 131.78 431.327 130.702C431.327 129.637 431.172 128.706 430.862 127.907C430.553 127.102 430.095 126.477 429.488 126.031C428.881 125.579 428.132 125.353 427.24 125.353C426.312 125.353 425.538 125.592 424.919 126.068C424.306 126.539 423.845 127.18 423.535 127.991C423.232 128.795 423.08 129.699 423.08 130.702C423.08 131.718 423.235 132.64 423.544 133.47C423.86 134.293 424.324 134.949 424.937 135.439C425.556 135.921 426.324 136.163 427.24 136.163ZM455.853 123.57C455.741 122.629 455.289 121.899 454.497 121.379C453.704 120.858 452.732 120.598 451.581 120.598C450.739 120.598 450.002 120.735 449.371 121.007C448.745 121.279 448.256 121.654 447.903 122.131C447.557 122.607 447.383 123.149 447.383 123.756C447.383 124.264 447.504 124.7 447.745 125.065C447.993 125.424 448.309 125.725 448.693 125.966C449.076 126.201 449.479 126.396 449.9 126.551C450.321 126.7 450.708 126.82 451.061 126.913L452.992 127.433C453.488 127.563 454.039 127.743 454.645 127.972C455.258 128.201 455.843 128.514 456.401 128.91C456.964 129.3 457.428 129.802 457.794 130.414C458.159 131.027 458.341 131.78 458.341 132.671C458.341 133.699 458.072 134.627 457.534 135.457C457.001 136.287 456.221 136.946 455.193 137.435C454.172 137.924 452.93 138.169 451.469 138.169C450.107 138.169 448.928 137.949 447.931 137.509C446.941 137.07 446.16 136.457 445.591 135.671C445.027 134.884 444.709 133.971 444.634 132.931H447.012C447.074 133.649 447.315 134.244 447.736 134.714C448.163 135.178 448.702 135.525 449.352 135.754C450.008 135.977 450.714 136.089 451.469 136.089C452.348 136.089 453.138 135.946 453.837 135.661C454.537 135.37 455.091 134.968 455.5 134.454C455.908 133.934 456.113 133.327 456.113 132.634C456.113 132.002 455.936 131.489 455.583 131.092C455.23 130.696 454.766 130.374 454.19 130.127C453.615 129.879 452.992 129.662 452.324 129.476L449.983 128.808C448.498 128.381 447.321 127.771 446.455 126.978C445.588 126.186 445.154 125.149 445.154 123.867C445.154 122.802 445.442 121.874 446.018 121.081C446.6 120.283 447.38 119.664 448.358 119.224C449.343 118.778 450.442 118.555 451.655 118.555C452.881 118.555 453.971 118.775 454.924 119.215C455.877 119.648 456.633 120.242 457.19 120.998C457.753 121.753 458.05 122.611 458.081 123.57H455.853ZM466.029 138.169C465.125 138.169 464.304 137.999 463.568 137.658C462.831 137.311 462.246 136.813 461.812 136.163C461.379 135.507 461.162 134.714 461.162 133.785C461.162 132.968 461.323 132.306 461.645 131.798C461.967 131.284 462.397 130.882 462.936 130.591C463.475 130.3 464.069 130.083 464.719 129.941C465.375 129.792 466.035 129.675 466.697 129.588C467.564 129.476 468.267 129.393 468.805 129.337C469.35 129.275 469.746 129.173 469.994 129.031C470.248 128.888 470.375 128.641 470.375 128.288V128.213C470.375 127.297 470.124 126.585 469.622 126.078C469.127 125.57 468.375 125.316 467.366 125.316C466.319 125.316 465.499 125.545 464.905 126.003C464.31 126.461 463.893 126.951 463.651 127.471L461.571 126.728C461.942 125.861 462.438 125.186 463.057 124.703C463.682 124.214 464.363 123.874 465.1 123.682C465.843 123.483 466.573 123.384 467.291 123.384C467.75 123.384 468.276 123.44 468.87 123.552C469.471 123.657 470.05 123.877 470.607 124.211C471.17 124.545 471.638 125.05 472.009 125.725C472.381 126.399 472.566 127.303 472.566 128.436V137.834H470.375V135.903H470.263C470.115 136.212 469.867 136.544 469.52 136.897C469.174 137.249 468.712 137.55 468.137 137.797C467.561 138.045 466.858 138.169 466.029 138.169ZM466.363 136.2C467.23 136.2 467.96 136.03 468.554 135.689C469.155 135.349 469.607 134.909 469.91 134.371C470.22 133.832 470.375 133.265 470.375 132.671V130.665C470.282 130.777 470.077 130.879 469.762 130.972C469.452 131.058 469.093 131.136 468.684 131.204C468.282 131.266 467.889 131.321 467.505 131.371C467.127 131.414 466.821 131.451 466.586 131.482C466.016 131.557 465.484 131.677 464.988 131.845C464.499 132.006 464.103 132.25 463.8 132.578C463.503 132.9 463.354 133.34 463.354 133.897C463.354 134.658 463.636 135.234 464.199 135.624C464.769 136.008 465.49 136.2 466.363 136.2ZM478.758 118.815V137.834H476.567V118.815H478.758ZM488.753 138.132C487.379 138.132 486.193 137.828 485.196 137.222C484.206 136.609 483.441 135.754 482.902 134.658C482.37 133.556 482.104 132.275 482.104 130.814C482.104 129.353 482.37 128.065 482.902 126.951C483.441 125.83 484.19 124.957 485.15 124.332C486.116 123.7 487.242 123.384 488.53 123.384C489.273 123.384 490.007 123.508 490.731 123.756C491.455 124.004 492.115 124.406 492.709 124.963C493.303 125.514 493.777 126.245 494.13 127.155C494.483 128.065 494.659 129.185 494.659 130.517V131.445H483.664V129.551H492.431C492.431 128.746 492.27 128.028 491.948 127.396C491.632 126.765 491.18 126.266 490.592 125.901C490.01 125.536 489.323 125.353 488.53 125.353C487.657 125.353 486.902 125.57 486.264 126.003C485.633 126.43 485.147 126.988 484.806 127.675C484.466 128.362 484.295 129.099 484.295 129.885V131.148C484.295 132.225 484.481 133.139 484.853 133.888C485.23 134.631 485.753 135.197 486.422 135.587C487.091 135.971 487.868 136.163 488.753 136.163C489.329 136.163 489.849 136.082 490.313 135.921C490.784 135.754 491.189 135.507 491.53 135.178C491.87 134.844 492.133 134.429 492.319 133.934L494.436 134.528C494.214 135.247 493.839 135.878 493.313 136.423C492.787 136.962 492.136 137.383 491.363 137.686C490.589 137.983 489.719 138.132 488.753 138.132ZM508.097 126.765L506.128 127.322C506.005 126.994 505.822 126.675 505.58 126.365C505.345 126.05 505.023 125.79 504.615 125.585C504.206 125.381 503.683 125.279 503.045 125.279C502.172 125.279 501.445 125.48 500.863 125.883C500.287 126.279 499.999 126.783 499.999 127.396C499.999 127.941 500.197 128.371 500.593 128.687C500.99 129.003 501.609 129.266 502.451 129.476L504.568 129.997C505.844 130.306 506.794 130.78 507.419 131.417C508.044 132.049 508.357 132.863 508.357 133.86C508.357 134.677 508.122 135.408 507.651 136.051C507.187 136.695 506.537 137.203 505.701 137.574C504.865 137.946 503.893 138.132 502.785 138.132C501.33 138.132 500.126 137.816 499.173 137.184C498.219 136.553 497.616 135.63 497.362 134.417L499.442 133.897C499.64 134.665 500.015 135.24 500.566 135.624C501.123 136.008 501.85 136.2 502.748 136.2C503.77 136.2 504.581 135.983 505.181 135.55C505.788 135.11 506.091 134.584 506.091 133.971C506.091 133.476 505.918 133.061 505.571 132.727C505.224 132.386 504.692 132.132 503.974 131.965L501.596 131.408C500.29 131.099 499.331 130.619 498.718 129.969C498.111 129.312 497.807 128.492 497.807 127.508C497.807 126.703 498.033 125.991 498.485 125.372C498.944 124.753 499.566 124.267 500.352 123.914C501.144 123.561 502.042 123.384 503.045 123.384C504.457 123.384 505.565 123.694 506.37 124.313C507.181 124.932 507.757 125.749 508.097 126.765ZM519.791 129.811C519.791 127.471 520.095 125.319 520.701 123.357C521.314 121.388 522.187 119.577 523.32 117.924H525.252C524.806 118.537 524.388 119.292 523.998 120.19C523.614 121.081 523.277 122.063 522.986 123.134C522.695 124.199 522.466 125.301 522.299 126.44C522.138 127.579 522.057 128.703 522.057 129.811C522.057 131.284 522.2 132.779 522.484 134.296C522.769 135.813 523.153 137.222 523.636 138.522C524.119 139.822 524.658 140.88 525.252 141.698H523.32C522.187 140.045 521.314 138.237 520.701 136.274C520.095 134.306 519.791 132.151 519.791 129.811ZM528.486 137.834V123.57H530.678V137.834H528.486ZM529.6 121.193C529.173 121.193 528.805 121.047 528.495 120.756C528.192 120.465 528.04 120.116 528.04 119.707C528.04 119.298 528.192 118.948 528.495 118.658C528.805 118.367 529.173 118.221 529.6 118.221C530.028 118.221 530.393 118.367 530.696 118.658C531.006 118.948 531.161 119.298 531.161 119.707C531.161 120.116 531.006 120.465 530.696 120.756C530.393 121.047 530.028 121.193 529.6 121.193ZM536.883 129.254V137.834H534.692V123.57H536.809V125.799H536.995C537.329 125.075 537.837 124.493 538.518 124.053C539.199 123.607 540.078 123.384 541.155 123.384C542.121 123.384 542.966 123.583 543.691 123.979C544.415 124.369 544.978 124.963 545.381 125.762C545.783 126.554 545.984 127.557 545.984 128.771V137.834H543.793V128.919C543.793 127.799 543.502 126.926 542.92 126.3C542.338 125.669 541.539 125.353 540.524 125.353C539.824 125.353 539.199 125.505 538.648 125.808C538.103 126.112 537.673 126.554 537.357 127.136C537.041 127.718 536.883 128.424 536.883 129.254ZM563.994 118.815V137.834H561.69V121.23H561.579L556.936 124.313V121.973L561.69 118.815H563.994ZM582.242 138.132C581.053 138.132 580.004 137.831 579.094 137.231C578.184 136.624 577.472 135.77 576.958 134.668C576.444 133.56 576.187 132.25 576.187 130.739C576.187 129.241 576.444 127.941 576.958 126.839C577.472 125.737 578.187 124.886 579.103 124.285C580.019 123.685 581.078 123.384 582.279 123.384C583.208 123.384 583.941 123.539 584.48 123.849C585.025 124.152 585.44 124.499 585.724 124.889C586.015 125.273 586.241 125.588 586.402 125.836H586.588V118.815H588.78V137.834H586.662V135.643H586.402C586.241 135.903 586.012 136.231 585.715 136.627C585.418 137.017 584.994 137.367 584.443 137.677C583.892 137.98 583.158 138.132 582.242 138.132ZM582.539 136.163C583.418 136.163 584.161 135.934 584.768 135.476C585.374 135.011 585.836 134.371 586.151 133.553C586.467 132.73 586.625 131.78 586.625 130.702C586.625 129.637 586.47 128.706 586.161 127.907C585.851 127.102 585.393 126.477 584.786 126.031C584.18 125.579 583.43 125.353 582.539 125.353C581.61 125.353 580.836 125.592 580.217 126.068C579.604 126.539 579.143 127.18 578.834 127.991C578.53 128.795 578.379 129.699 578.379 130.702C578.379 131.718 578.533 132.64 578.843 133.47C579.159 134.293 579.623 134.949 580.236 135.439C580.855 135.921 581.623 136.163 582.539 136.163ZM597.295 138.169C596.392 138.169 595.571 137.999 594.835 137.658C594.098 137.311 593.513 136.813 593.079 136.163C592.646 135.507 592.429 134.714 592.429 133.785C592.429 132.968 592.59 132.306 592.912 131.798C593.234 131.284 593.664 130.882 594.203 130.591C594.742 130.3 595.336 130.083 595.986 129.941C596.642 129.792 597.302 129.675 597.964 129.588C598.831 129.476 599.534 129.393 600.072 129.337C600.617 129.275 601.013 129.173 601.261 129.031C601.515 128.888 601.642 128.641 601.642 128.288V128.213C601.642 127.297 601.391 126.585 600.889 126.078C600.394 125.57 599.642 125.316 598.633 125.316C597.586 125.316 596.766 125.545 596.172 126.003C595.577 126.461 595.16 126.951 594.918 127.471L592.838 126.728C593.209 125.861 593.705 125.186 594.324 124.703C594.949 124.214 595.63 123.874 596.367 123.682C597.11 123.483 597.84 123.384 598.558 123.384C599.017 123.384 599.543 123.44 600.137 123.552C600.738 123.657 601.317 123.877 601.874 124.211C602.437 124.545 602.905 125.05 603.276 125.725C603.648 126.399 603.833 127.303 603.833 128.436V137.834H601.642V135.903H601.53C601.382 136.212 601.134 136.544 600.787 136.897C600.441 137.249 599.979 137.55 599.404 137.797C598.828 138.045 598.125 138.169 597.295 138.169ZM597.63 136.2C598.497 136.2 599.227 136.03 599.821 135.689C600.422 135.349 600.874 134.909 601.177 134.371C601.487 133.832 601.642 133.265 601.642 132.671V130.665C601.549 130.777 601.344 130.879 601.029 130.972C600.719 131.058 600.36 131.136 599.951 131.204C599.549 131.266 599.156 131.321 598.772 131.371C598.394 131.414 598.088 131.451 597.853 131.482C597.283 131.557 596.751 131.677 596.255 131.845C595.766 132.006 595.37 132.25 595.067 132.578C594.769 132.9 594.621 133.34 594.621 133.897C594.621 134.658 594.903 135.234 595.466 135.624C596.036 136.008 596.757 136.2 597.63 136.2ZM608.734 143.184C608.363 143.184 608.032 143.153 607.741 143.091C607.45 143.035 607.248 142.979 607.137 142.924L607.694 140.992C608.227 141.128 608.697 141.178 609.106 141.141C609.514 141.103 609.877 140.921 610.192 140.593C610.514 140.271 610.808 139.748 611.075 139.023L611.483 137.909L606.208 123.57H608.586L612.523 134.937H612.672L616.609 123.57H618.987L612.932 139.915C612.659 140.651 612.322 141.261 611.92 141.744C611.517 142.233 611.05 142.595 610.517 142.831C609.991 143.066 609.397 143.184 608.734 143.184ZM626.56 129.811C626.56 132.151 626.254 134.306 625.641 136.274C625.034 138.237 624.164 140.045 623.031 141.698H621.1C621.545 141.085 621.96 140.329 622.344 139.432C622.734 138.54 623.075 137.562 623.366 136.497C623.656 135.426 623.882 134.321 624.043 133.182C624.211 132.036 624.294 130.913 624.294 129.811C624.294 128.337 624.152 126.842 623.867 125.325C623.582 123.809 623.198 122.4 622.715 121.1C622.233 119.8 621.694 118.741 621.1 117.924H623.031C624.164 119.577 625.034 121.388 625.641 123.357C626.254 125.319 626.56 127.471 626.56 129.811Z" fill="#7C89A9"/>
<path d="M273.159 599.638V580.619H275.462V597.595H284.303V599.638H273.159ZM293.367 599.935C292.079 599.935 290.949 599.629 289.977 599.016C289.012 598.403 288.256 597.546 287.712 596.444C287.173 595.342 286.904 594.054 286.904 592.58C286.904 591.094 287.173 589.797 287.712 588.689C288.256 587.581 289.012 586.72 289.977 586.108C290.949 585.495 292.079 585.188 293.367 585.188C294.655 585.188 295.782 585.495 296.747 586.108C297.719 586.72 298.475 587.581 299.013 588.689C299.558 589.797 299.831 591.094 299.831 592.58C299.831 594.054 299.558 595.342 299.013 596.444C298.475 597.546 297.719 598.403 296.747 599.016C295.782 599.629 294.655 599.935 293.367 599.935ZM293.367 597.967C294.345 597.967 295.15 597.716 295.782 597.214C296.413 596.713 296.881 596.054 297.184 595.236C297.487 594.419 297.639 593.534 297.639 592.58C297.639 591.627 297.487 590.738 297.184 589.915C296.881 589.092 296.413 588.426 295.782 587.918C295.15 587.411 294.345 587.157 293.367 587.157C292.389 587.157 291.584 587.411 290.953 587.918C290.321 588.426 289.854 589.092 289.55 589.915C289.247 590.738 289.095 591.627 289.095 592.58C289.095 593.534 289.247 594.419 289.55 595.236C289.854 596.054 290.321 596.713 290.953 597.214C291.584 597.716 292.389 597.967 293.367 597.967ZM304.077 604.987C303.705 604.987 303.374 604.956 303.083 604.894C302.792 604.839 302.591 604.783 302.48 604.727L303.037 602.796C303.569 602.932 304.04 602.981 304.448 602.944C304.857 602.907 305.219 602.724 305.535 602.396C305.857 602.074 306.151 601.551 306.417 600.827L306.826 599.712L301.551 585.374H303.928L307.866 596.741H308.014L311.952 585.374H314.329L308.275 601.718C308.002 602.455 307.665 603.065 307.262 603.548C306.86 604.037 306.392 604.399 305.86 604.634C305.334 604.87 304.739 604.987 304.077 604.987ZM320.986 599.973C320.082 599.973 319.261 599.802 318.525 599.462C317.788 599.115 317.203 598.617 316.769 597.967C316.336 597.31 316.119 596.518 316.119 595.589C316.119 594.772 316.28 594.11 316.602 593.602C316.924 593.088 317.355 592.686 317.893 592.395C318.432 592.104 319.026 591.887 319.676 591.745C320.332 591.596 320.992 591.478 321.654 591.392C322.521 591.28 323.224 591.197 323.762 591.141C324.307 591.079 324.703 590.977 324.951 590.834C325.205 590.692 325.332 590.444 325.332 590.091V590.017C325.332 589.101 325.081 588.389 324.58 587.881C324.084 587.374 323.332 587.12 322.323 587.12C321.277 587.12 320.456 587.349 319.862 587.807C319.268 588.265 318.85 588.754 318.608 589.274L316.528 588.531C316.9 587.665 317.395 586.99 318.014 586.507C318.639 586.018 319.32 585.677 320.057 585.485C320.8 585.287 321.53 585.188 322.249 585.188C322.707 585.188 323.233 585.244 323.827 585.355C324.428 585.461 325.007 585.68 325.564 586.015C326.127 586.349 326.595 586.854 326.966 587.528C327.338 588.203 327.523 589.107 327.523 590.24V599.638H325.332V597.707H325.22C325.072 598.016 324.824 598.347 324.477 598.7C324.131 599.053 323.669 599.353 323.094 599.601C322.518 599.849 321.815 599.973 320.986 599.973ZM321.32 598.004C322.187 598.004 322.917 597.833 323.512 597.493C324.112 597.152 324.564 596.713 324.867 596.174C325.177 595.636 325.332 595.069 325.332 594.475V592.469C325.239 592.58 325.035 592.682 324.719 592.775C324.409 592.862 324.05 592.939 323.642 593.008C323.239 593.069 322.846 593.125 322.462 593.175C322.085 593.218 321.778 593.255 321.543 593.286C320.973 593.36 320.441 593.481 319.946 593.648C319.456 593.809 319.06 594.054 318.757 594.382C318.46 594.704 318.311 595.143 318.311 595.701C318.311 596.462 318.593 597.038 319.156 597.428C319.726 597.812 320.447 598.004 321.32 598.004ZM333.715 580.619V599.638H331.524V580.619H333.715ZM343.933 585.374V587.231H336.541V585.374H343.933ZM338.695 581.956H340.887V595.552C340.887 596.171 340.977 596.635 341.156 596.945C341.342 597.248 341.577 597.453 341.862 597.558C342.153 597.657 342.459 597.707 342.781 597.707C343.023 597.707 343.221 597.694 343.376 597.669C343.531 597.638 343.654 597.614 343.747 597.595L344.193 599.564C344.044 599.62 343.837 599.675 343.571 599.731C343.305 599.793 342.967 599.824 342.559 599.824C341.939 599.824 341.333 599.691 340.738 599.425C340.15 599.158 339.661 598.753 339.271 598.208C338.887 597.663 338.695 596.976 338.695 596.146V581.956ZM348.641 604.987C348.27 604.987 347.939 604.956 347.648 604.894C347.357 604.839 347.155 604.783 347.044 604.727L347.601 602.796C348.134 602.932 348.604 602.981 349.013 602.944C349.421 602.907 349.784 602.724 350.099 602.396C350.421 602.074 350.715 601.551 350.982 600.827L351.39 599.712L346.115 585.374H348.493L352.43 596.741H352.579L356.516 585.374H358.894L352.839 601.718C352.566 602.455 352.229 603.065 351.827 603.548C351.424 604.037 350.957 604.399 350.424 604.634C349.898 604.87 349.304 604.987 348.641 604.987ZM369.439 599.638V580.619H375.865C377.357 580.619 378.577 580.888 379.524 581.427C380.478 581.959 381.183 582.681 381.641 583.591C382.1 584.501 382.329 585.516 382.329 586.637C382.329 587.757 382.1 588.776 381.641 589.692C381.19 590.608 380.49 591.339 379.543 591.884C378.595 592.422 377.382 592.692 375.902 592.692H371.296V590.649H375.828C376.85 590.649 377.67 590.472 378.289 590.119C378.908 589.766 379.357 589.29 379.636 588.689C379.92 588.082 380.063 587.398 380.063 586.637C380.063 585.875 379.92 585.194 379.636 584.594C379.357 583.993 378.905 583.523 378.28 583.182C377.654 582.836 376.825 582.662 375.791 582.662H371.742V599.638H369.439ZM385.742 599.638V585.374H387.859V587.528H388.007C388.268 586.823 388.738 586.25 389.419 585.81C390.1 585.371 390.868 585.151 391.722 585.151C391.883 585.151 392.084 585.154 392.326 585.16C392.567 585.166 392.75 585.176 392.874 585.188V587.417C392.799 587.398 392.629 587.371 392.363 587.333C392.103 587.29 391.827 587.268 391.536 587.268C390.843 587.268 390.224 587.414 389.679 587.705C389.14 587.99 388.713 588.386 388.398 588.894C388.088 589.395 387.933 589.968 387.933 590.612V599.638H385.742ZM400.832 599.935C399.545 599.935 398.415 599.629 397.443 599.016C396.477 598.403 395.722 597.546 395.177 596.444C394.638 595.342 394.369 594.054 394.369 592.58C394.369 591.094 394.638 589.797 395.177 588.689C395.722 587.581 396.477 586.72 397.443 586.108C398.415 585.495 399.545 585.188 400.832 585.188C402.12 585.188 403.247 585.495 404.213 586.108C405.185 586.72 405.94 587.581 406.479 588.689C407.023 589.797 407.296 591.094 407.296 592.58C407.296 594.054 407.023 595.342 406.479 596.444C405.94 597.546 405.185 598.403 404.213 599.016C403.247 599.629 402.12 599.935 400.832 599.935ZM400.832 597.967C401.811 597.967 402.615 597.716 403.247 597.214C403.878 596.713 404.346 596.054 404.649 595.236C404.953 594.419 405.104 593.534 405.104 592.58C405.104 591.627 404.953 590.738 404.649 589.915C404.346 589.092 403.878 588.426 403.247 587.918C402.615 587.411 401.811 587.157 400.832 587.157C399.854 587.157 399.049 587.411 398.418 587.918C397.786 588.426 397.319 589.092 397.016 589.915C396.712 590.738 396.56 591.627 396.56 592.58C396.56 593.534 396.712 594.419 397.016 595.236C397.319 596.054 397.786 596.713 398.418 597.214C399.049 597.716 399.854 597.967 400.832 597.967ZM416.399 605.284C415.34 605.284 414.43 605.148 413.669 604.876C412.907 604.61 412.273 604.257 411.765 603.817C411.264 603.384 410.864 602.919 410.567 602.424L412.313 601.198C412.511 601.458 412.762 601.756 413.065 602.09C413.369 602.43 413.783 602.724 414.31 602.972C414.842 603.226 415.539 603.353 416.399 603.353C417.551 603.353 418.501 603.074 419.25 602.517C419.999 601.96 420.374 601.087 420.374 599.898V597.001H420.188C420.027 597.261 419.798 597.583 419.501 597.967C419.21 598.344 418.789 598.682 418.238 598.979C417.693 599.27 416.956 599.415 416.028 599.415C414.876 599.415 413.842 599.143 412.926 598.598C412.016 598.053 411.295 597.261 410.762 596.221C410.236 595.181 409.973 593.918 409.973 592.432C409.973 590.971 410.23 589.698 410.744 588.615C411.257 587.525 411.972 586.683 412.889 586.089C413.805 585.488 414.864 585.188 416.065 585.188C416.993 585.188 417.73 585.343 418.275 585.652C418.826 585.956 419.247 586.303 419.538 586.693C419.835 587.076 420.064 587.392 420.225 587.64H420.448V585.374H422.565V600.047C422.565 601.273 422.287 602.269 421.73 603.037C421.179 603.811 420.436 604.377 419.501 604.737C418.572 605.102 417.538 605.284 416.399 605.284ZM416.325 597.447C417.204 597.447 417.947 597.245 418.554 596.843C419.16 596.44 419.622 595.862 419.937 595.106C420.253 594.351 420.411 593.447 420.411 592.395C420.411 591.367 420.256 590.46 419.947 589.674C419.637 588.887 419.179 588.271 418.572 587.826C417.965 587.38 417.216 587.157 416.325 587.157C415.396 587.157 414.622 587.392 414.003 587.863C413.39 588.333 412.929 588.965 412.619 589.757C412.316 590.55 412.164 591.429 412.164 592.395C412.164 593.385 412.319 594.261 412.629 595.023C412.944 595.778 413.409 596.372 414.022 596.806C414.641 597.233 415.409 597.447 416.325 597.447ZM426.577 599.638V585.374H428.695V587.528H428.843C429.103 586.823 429.574 586.25 430.255 585.81C430.936 585.371 431.704 585.151 432.558 585.151C432.719 585.151 432.92 585.154 433.162 585.16C433.403 585.166 433.586 585.176 433.709 585.188V587.417C433.635 587.398 433.465 587.371 433.199 587.333C432.939 587.29 432.663 587.268 432.372 587.268C431.679 587.268 431.06 587.414 430.515 587.705C429.976 587.99 429.549 588.386 429.233 588.894C428.924 589.395 428.769 589.968 428.769 590.612V599.638H426.577ZM440.505 599.973C439.601 599.973 438.781 599.802 438.044 599.462C437.307 599.115 436.722 598.617 436.289 597.967C435.855 597.31 435.639 596.518 435.639 595.589C435.639 594.772 435.8 594.11 436.122 593.602C436.444 593.088 436.874 592.686 437.413 592.395C437.951 592.104 438.546 591.887 439.196 591.745C439.852 591.596 440.511 591.478 441.174 591.392C442.04 591.28 442.743 591.197 443.282 591.141C443.827 591.079 444.223 590.977 444.47 590.834C444.724 590.692 444.851 590.444 444.851 590.091V590.017C444.851 589.101 444.6 588.389 444.099 587.881C443.604 587.374 442.851 587.12 441.842 587.12C440.796 587.12 439.976 587.349 439.381 587.807C438.787 588.265 438.369 588.754 438.128 589.274L436.047 588.531C436.419 587.665 436.914 586.99 437.533 586.507C438.159 586.018 438.84 585.677 439.576 585.485C440.319 585.287 441.05 585.188 441.768 585.188C442.226 585.188 442.752 585.244 443.347 585.355C443.947 585.461 444.526 585.68 445.083 586.015C445.647 586.349 446.114 586.854 446.486 587.528C446.857 588.203 447.043 589.107 447.043 590.24V599.638H444.851V597.707H444.74C444.591 598.016 444.343 598.347 443.997 598.7C443.65 599.053 443.189 599.353 442.613 599.601C442.037 599.849 441.335 599.973 440.505 599.973ZM440.839 598.004C441.706 598.004 442.437 597.833 443.031 597.493C443.631 597.152 444.083 596.713 444.387 596.174C444.696 595.636 444.851 595.069 444.851 594.475V592.469C444.758 592.58 444.554 592.682 444.238 592.775C443.929 592.862 443.57 592.939 443.161 593.008C442.759 593.069 442.365 593.125 441.982 593.175C441.604 593.218 441.297 593.255 441.062 593.286C440.493 593.36 439.96 593.481 439.465 593.648C438.976 593.809 438.58 594.054 438.276 594.382C437.979 594.704 437.83 595.143 437.83 595.701C437.83 596.462 438.112 597.038 438.676 597.428C439.245 597.812 439.966 598.004 440.839 598.004ZM451.043 599.638V585.374H453.16V587.603H453.346C453.643 586.841 454.123 586.25 454.786 585.829C455.448 585.402 456.244 585.188 457.172 585.188C458.113 585.188 458.896 585.402 459.522 585.829C460.153 586.25 460.645 586.841 460.998 587.603H461.147C461.512 586.866 462.06 586.281 462.791 585.847C463.521 585.408 464.397 585.188 465.419 585.188C466.694 585.188 467.737 585.587 468.548 586.386C469.359 587.179 469.765 588.414 469.765 590.091V599.638H467.573V590.091C467.573 589.039 467.285 588.287 466.71 587.835C466.134 587.383 465.456 587.157 464.676 587.157C463.673 587.157 462.896 587.46 462.345 588.067C461.794 588.668 461.518 589.429 461.518 590.352V599.638H459.29V589.869C459.29 589.058 459.026 588.404 458.5 587.909C457.974 587.408 457.296 587.157 456.466 587.157C455.897 587.157 455.364 587.309 454.869 587.612C454.38 587.915 453.984 588.336 453.68 588.875C453.383 589.407 453.235 590.023 453.235 590.723V599.638H451.043ZM473.772 599.638V585.374H475.889V587.603H476.075C476.372 586.841 476.852 586.25 477.515 585.829C478.177 585.402 478.973 585.188 479.901 585.188C480.842 585.188 481.626 585.402 482.251 585.829C482.882 586.25 483.375 586.841 483.727 587.603H483.876C484.241 586.866 484.789 586.281 485.52 585.847C486.25 585.408 487.126 585.188 488.148 585.188C489.423 585.188 490.466 585.587 491.277 586.386C492.089 587.179 492.494 588.414 492.494 590.091V599.638H490.302V590.091C490.302 589.039 490.014 588.287 489.439 587.835C488.863 587.383 488.185 587.157 487.405 587.157C486.402 587.157 485.625 587.46 485.074 588.067C484.523 588.668 484.247 589.429 484.247 590.352V599.638H482.019V589.869C482.019 589.058 481.756 588.404 481.229 587.909C480.703 587.408 480.025 587.157 479.196 587.157C478.626 587.157 478.094 587.309 477.598 587.612C477.109 587.915 476.713 588.336 476.41 588.875C476.112 589.407 475.964 590.023 475.964 590.723V599.638H473.772ZM502.482 599.935C501.107 599.935 499.922 599.632 498.925 599.025C497.934 598.412 497.17 597.558 496.631 596.462C496.099 595.36 495.833 594.079 495.833 592.617C495.833 591.156 496.099 589.869 496.631 588.754C497.17 587.634 497.919 586.761 498.879 586.135C499.844 585.504 500.971 585.188 502.259 585.188C503.002 585.188 503.736 585.312 504.46 585.56C505.184 585.807 505.844 586.21 506.438 586.767C507.032 587.318 507.506 588.048 507.859 588.959C508.212 589.869 508.388 590.989 508.388 592.32V593.249H497.393V591.354H506.159C506.159 590.55 505.998 589.831 505.676 589.2C505.361 588.568 504.909 588.07 504.321 587.705C503.739 587.34 503.051 587.157 502.259 587.157C501.386 587.157 500.631 587.374 499.993 587.807C499.362 588.234 498.876 588.791 498.535 589.479C498.195 590.166 498.024 590.903 498.024 591.689V592.952C498.024 594.029 498.21 594.942 498.581 595.691C498.959 596.434 499.482 597.001 500.151 597.391C500.82 597.775 501.597 597.967 502.482 597.967C503.058 597.967 503.578 597.886 504.042 597.725C504.513 597.558 504.918 597.31 505.259 596.982C505.599 596.648 505.862 596.233 506.048 595.738L508.165 596.332C507.942 597.05 507.568 597.682 507.042 598.227C506.515 598.765 505.865 599.186 505.091 599.49C504.318 599.787 503.448 599.935 502.482 599.935ZM521.826 588.568L519.857 589.126C519.733 588.798 519.551 588.479 519.309 588.169C519.074 587.853 518.752 587.593 518.343 587.389C517.935 587.185 517.412 587.083 516.774 587.083C515.901 587.083 515.174 587.284 514.592 587.686C514.016 588.082 513.728 588.587 513.728 589.2C513.728 589.745 513.926 590.175 514.322 590.491C514.719 590.807 515.338 591.07 516.18 591.28L518.297 591.8C519.572 592.11 520.523 592.583 521.148 593.221C521.773 593.853 522.086 594.667 522.086 595.663C522.086 596.481 521.851 597.211 521.38 597.855C520.916 598.499 520.266 599.007 519.43 599.378C518.594 599.75 517.622 599.935 516.514 599.935C515.059 599.935 513.855 599.62 512.901 598.988C511.948 598.357 511.344 597.434 511.091 596.221L513.171 595.701C513.369 596.468 513.743 597.044 514.294 597.428C514.852 597.812 515.579 598.004 516.477 598.004C517.498 598.004 518.309 597.787 518.91 597.354C519.517 596.914 519.82 596.388 519.82 595.775C519.82 595.28 519.647 594.865 519.3 594.531C518.953 594.19 518.421 593.936 517.703 593.769L515.325 593.212C514.019 592.902 513.059 592.422 512.446 591.772C511.84 591.116 511.536 590.296 511.536 589.311C511.536 588.507 511.762 587.795 512.214 587.175C512.672 586.556 513.295 586.07 514.081 585.717C514.873 585.365 515.771 585.188 516.774 585.188C518.186 585.188 519.294 585.498 520.099 586.117C520.91 586.736 521.485 587.553 521.826 588.568Z" fill="#7C89A9"/>
<path d="M88.0574 727.336V702.953H96.2963C98.2013 702.953 99.765 703.278 100.987 703.929C102.21 704.572 103.115 705.457 103.702 706.584C104.289 707.711 104.583 708.993 104.583 710.43C104.583 711.867 104.289 713.141 103.702 714.252C103.115 715.363 102.214 716.236 100.999 716.871C99.7848 717.498 98.2331 717.812 96.344 717.812H89.6766V715.145H96.2487C97.5504 715.145 98.5982 714.954 99.3919 714.573C100.194 714.192 100.773 713.652 101.13 712.954C101.495 712.248 101.678 711.406 101.678 710.43C101.678 709.454 101.495 708.6 101.13 707.87C100.765 707.14 100.182 706.576 99.38 706.18C98.5783 705.775 97.5187 705.572 96.2011 705.572H91.0101V727.336H88.0574ZM99.5348 716.383L105.535 727.336H102.106L96.2011 716.383H99.5348ZM111.267 734.194C110.791 734.194 110.366 734.155 109.993 734.075C109.62 734.004 109.362 733.932 109.219 733.861L109.934 731.384C110.616 731.559 111.219 731.623 111.743 731.575C112.267 731.527 112.731 731.293 113.136 730.873C113.549 730.46 113.926 729.789 114.267 728.86L114.791 727.432L108.029 709.049H111.077L116.125 723.622H116.315L121.363 709.049H124.411L116.649 730.003C116.299 730.948 115.867 731.73 115.351 732.349C114.835 732.976 114.236 733.44 113.553 733.742C112.878 734.043 112.116 734.194 111.267 734.194ZM132.599 727.336L127.027 709.049H129.979L133.932 723.05H134.122L138.028 709.049H141.028L144.885 723.003H145.076L149.029 709.049H151.981L146.409 727.336H143.647L139.647 713.287H139.361L135.361 727.336H132.599ZM161.413 727.765C160.254 727.765 159.202 727.547 158.258 727.11C157.313 726.666 156.563 726.027 156.008 725.193C155.452 724.352 155.174 723.336 155.174 722.145C155.174 721.098 155.381 720.248 155.793 719.598C156.206 718.939 156.758 718.423 157.448 718.05C158.139 717.677 158.901 717.399 159.734 717.216C160.575 717.026 161.421 716.875 162.27 716.764C163.381 716.621 164.282 716.514 164.973 716.442C165.671 716.363 166.179 716.232 166.497 716.05C166.822 715.867 166.985 715.55 166.985 715.097V715.002C166.985 713.827 166.663 712.914 166.02 712.263C165.385 711.613 164.421 711.287 163.127 711.287C161.786 711.287 160.734 711.581 159.972 712.168C159.21 712.756 158.674 713.383 158.365 714.049L155.698 713.097C156.174 711.986 156.809 711.12 157.603 710.501C158.405 709.874 159.278 709.438 160.222 709.192C161.175 708.938 162.111 708.811 163.032 708.811C163.619 708.811 164.294 708.882 165.056 709.025C165.826 709.16 166.568 709.442 167.283 709.87C168.005 710.299 168.604 710.946 169.08 711.811C169.557 712.676 169.795 713.835 169.795 715.288V727.336H166.985V724.86H166.842C166.652 725.257 166.334 725.681 165.89 726.134C165.445 726.586 164.854 726.971 164.116 727.289C163.377 727.606 162.476 727.765 161.413 727.765ZM161.841 725.241C162.953 725.241 163.889 725.023 164.651 724.586C165.421 724.15 166.001 723.586 166.39 722.895C166.786 722.205 166.985 721.479 166.985 720.717V718.145C166.866 718.288 166.604 718.419 166.199 718.538C165.802 718.649 165.342 718.748 164.818 718.836C164.302 718.915 163.798 718.986 163.306 719.05C162.822 719.105 162.429 719.153 162.127 719.193C161.397 719.288 160.714 719.443 160.079 719.657C159.452 719.863 158.944 720.177 158.555 720.598C158.174 721.01 157.984 721.574 157.984 722.288C157.984 723.265 158.345 724.003 159.067 724.503C159.798 724.995 160.722 725.241 161.841 725.241ZM175.258 727.336V709.049H177.973V711.811H178.164C178.497 710.906 179.1 710.172 179.973 709.608C180.846 709.045 181.831 708.763 182.926 708.763C183.132 708.763 183.39 708.767 183.7 708.775C184.009 708.783 184.243 708.795 184.402 708.811V711.668C184.307 711.644 184.089 711.609 183.747 711.561C183.414 711.505 183.061 711.478 182.688 711.478C181.799 711.478 181.005 711.664 180.307 712.037C179.616 712.402 179.068 712.91 178.664 713.561C178.267 714.204 178.068 714.938 178.068 715.764V727.336H175.258ZM194.417 727.717C192.893 727.717 191.548 727.332 190.381 726.563C189.214 725.785 188.301 724.689 187.643 723.276C186.984 721.856 186.654 720.177 186.654 718.24C186.654 716.319 186.984 714.653 187.643 713.24C188.301 711.827 189.218 710.736 190.393 709.966C191.568 709.196 192.925 708.811 194.465 708.811C195.655 708.811 196.596 709.009 197.286 709.406C197.985 709.795 198.517 710.239 198.882 710.739C199.255 711.232 199.545 711.636 199.751 711.954H199.989V702.953H202.799V727.336H200.084V724.527H199.751C199.545 724.86 199.251 725.281 198.87 725.789C198.489 726.289 197.945 726.737 197.239 727.134C196.532 727.523 195.592 727.717 194.417 727.717ZM194.798 725.193C195.925 725.193 196.878 724.9 197.655 724.312C198.433 723.717 199.025 722.895 199.429 721.848C199.834 720.792 200.037 719.574 200.037 718.193C200.037 716.827 199.838 715.633 199.441 714.609C199.045 713.577 198.457 712.775 197.679 712.204C196.901 711.625 195.941 711.335 194.798 711.335C193.607 711.335 192.615 711.64 191.822 712.252C191.036 712.855 190.444 713.676 190.048 714.716C189.659 715.748 189.464 716.907 189.464 718.193C189.464 719.494 189.663 720.677 190.059 721.741C190.464 722.796 191.06 723.638 191.845 724.265C192.639 724.884 193.623 725.193 194.798 725.193ZM221.624 713.145L219.1 713.859C218.941 713.438 218.707 713.029 218.398 712.633C218.096 712.228 217.683 711.894 217.159 711.632C216.636 711.371 215.965 711.24 215.147 711.24C214.028 711.24 213.095 711.498 212.349 712.013C211.611 712.521 211.242 713.168 211.242 713.954C211.242 714.653 211.496 715.204 212.004 715.609C212.512 716.014 213.306 716.351 214.385 716.621L217.1 717.288C218.735 717.685 219.953 718.292 220.755 719.109C221.557 719.919 221.958 720.963 221.958 722.241C221.958 723.288 221.656 724.225 221.053 725.05C220.457 725.876 219.624 726.527 218.552 727.003C217.481 727.479 216.235 727.717 214.814 727.717C212.949 727.717 211.405 727.313 210.182 726.503C208.96 725.693 208.186 724.511 207.861 722.955L210.528 722.288C210.782 723.273 211.262 724.011 211.968 724.503C212.683 724.995 213.615 725.241 214.766 725.241C216.076 725.241 217.116 724.963 217.886 724.408C218.664 723.844 219.052 723.169 219.052 722.384C219.052 721.749 218.83 721.217 218.386 720.788C217.941 720.352 217.259 720.026 216.338 719.812L213.29 719.097C211.615 718.701 210.385 718.085 209.599 717.252C208.821 716.411 208.432 715.359 208.432 714.097C208.432 713.065 208.722 712.152 209.301 711.359C209.889 710.565 210.687 709.942 211.695 709.489C212.711 709.037 213.861 708.811 215.147 708.811C216.957 708.811 218.378 709.208 219.41 710.001C220.449 710.795 221.188 711.843 221.624 713.145Z" fill="black"/>
<path d="M370.108 710.573H367.155C366.981 709.724 366.675 708.977 366.238 708.334C365.81 707.692 365.286 707.152 364.667 706.715C364.056 706.271 363.377 705.937 362.631 705.715C361.885 705.493 361.107 705.382 360.297 705.382C358.821 705.382 357.484 705.755 356.285 706.501C355.094 707.247 354.146 708.346 353.439 709.799C352.741 711.251 352.392 713.033 352.392 715.145C352.392 717.256 352.741 719.038 353.439 720.49C354.146 721.943 355.094 723.042 356.285 723.788C357.484 724.535 358.821 724.908 360.297 724.908C361.107 724.908 361.885 724.796 362.631 724.574C363.377 724.352 364.056 724.023 364.667 723.586C365.286 723.142 365.81 722.598 366.238 721.955C366.675 721.304 366.981 720.558 367.155 719.717H370.108C369.886 720.963 369.481 722.078 368.893 723.062C368.306 724.046 367.576 724.884 366.703 725.574C365.83 726.257 364.849 726.777 363.762 727.134C362.683 727.491 361.528 727.67 360.297 727.67C358.218 727.67 356.368 727.162 354.749 726.146C353.13 725.13 351.856 723.685 350.927 721.812C349.999 719.939 349.534 717.716 349.534 715.145C349.534 712.573 349.999 710.351 350.927 708.477C351.856 706.604 353.13 705.16 354.749 704.144C356.368 703.128 358.218 702.62 360.297 702.62C361.528 702.62 362.683 702.798 363.762 703.155C364.849 703.513 365.83 704.036 366.703 704.727C367.576 705.41 368.306 706.243 368.893 707.227C369.481 708.204 369.886 709.319 370.108 710.573ZM374.833 727.336V709.049H377.548V711.811H377.739C378.072 710.906 378.675 710.172 379.548 709.608C380.421 709.045 381.406 708.763 382.501 708.763C382.707 708.763 382.965 708.767 383.275 708.775C383.584 708.783 383.819 708.795 383.977 708.811V711.668C383.882 711.644 383.664 711.609 383.322 711.561C382.989 711.505 382.636 711.478 382.263 711.478C381.374 711.478 380.58 711.664 379.882 712.037C379.191 712.402 378.643 712.91 378.239 713.561C377.842 714.204 377.643 714.938 377.643 715.764V727.336H374.833ZM394.754 727.717C392.992 727.717 391.472 727.328 390.194 726.551C388.924 725.765 387.944 724.669 387.253 723.265C386.571 721.852 386.229 720.209 386.229 718.336C386.229 716.462 386.571 714.811 387.253 713.383C387.944 711.946 388.904 710.827 390.135 710.025C391.373 709.216 392.817 708.811 394.468 708.811C395.421 708.811 396.361 708.969 397.29 709.287C398.219 709.604 399.064 710.12 399.826 710.835C400.588 711.541 401.195 712.478 401.648 713.645C402.1 714.811 402.326 716.248 402.326 717.955V719.145H388.23V716.716H399.469C399.469 715.684 399.262 714.764 398.85 713.954C398.445 713.145 397.865 712.506 397.111 712.037C396.365 711.569 395.484 711.335 394.468 711.335C393.349 711.335 392.381 711.613 391.563 712.168C390.754 712.716 390.131 713.43 389.694 714.311C389.257 715.192 389.039 716.137 389.039 717.145V718.764C389.039 720.145 389.277 721.316 389.754 722.276C390.238 723.229 390.908 723.955 391.766 724.455C392.623 724.947 393.619 725.193 394.754 725.193C395.492 725.193 396.159 725.09 396.754 724.884C397.358 724.669 397.877 724.352 398.314 723.931C398.751 723.503 399.088 722.971 399.326 722.336L402.041 723.098C401.755 724.019 401.275 724.828 400.6 725.527C399.925 726.217 399.092 726.757 398.1 727.146C397.107 727.527 395.992 727.717 394.754 727.717ZM413.841 727.717C412.317 727.717 410.972 727.332 409.805 726.563C408.638 725.785 407.726 724.689 407.067 723.276C406.408 721.856 406.079 720.177 406.079 718.24C406.079 716.319 406.408 714.653 407.067 713.24C407.726 711.827 408.642 710.736 409.817 709.966C410.992 709.196 412.349 708.811 413.889 708.811C415.079 708.811 416.02 709.009 416.711 709.406C417.409 709.795 417.941 710.239 418.306 710.739C418.679 711.232 418.969 711.636 419.175 711.954H419.413V702.953H422.223V727.336H419.509V724.527H419.175C418.969 724.86 418.675 725.281 418.294 725.789C417.913 726.289 417.369 726.737 416.663 727.134C415.957 727.523 415.016 727.717 413.841 727.717ZM414.222 725.193C415.349 725.193 416.302 724.9 417.08 724.312C417.858 723.717 418.449 722.895 418.854 721.848C419.258 720.792 419.461 719.574 419.461 718.193C419.461 716.827 419.262 715.633 418.866 714.609C418.469 713.577 417.881 712.775 417.103 712.204C416.326 711.625 415.365 711.335 414.222 711.335C413.032 711.335 412.039 711.64 411.246 712.252C410.46 712.855 409.869 713.676 409.472 714.716C409.083 715.748 408.888 716.907 408.888 718.193C408.888 719.494 409.087 720.677 409.484 721.741C409.888 722.796 410.484 723.638 411.27 724.265C412.063 724.884 413.048 725.193 414.222 725.193ZM428.095 727.336V709.049H430.904V727.336H428.095ZM429.523 706.001C428.976 706.001 428.503 705.814 428.107 705.441C427.718 705.068 427.523 704.62 427.523 704.096C427.523 703.572 427.718 703.124 428.107 702.751C428.503 702.378 428.976 702.191 429.523 702.191C430.071 702.191 430.539 702.378 430.928 702.751C431.325 703.124 431.524 703.572 431.524 704.096C431.524 704.62 431.325 705.068 430.928 705.441C430.539 705.814 430.071 706.001 429.523 706.001ZM444.339 709.049V711.43H434.862V709.049H444.339ZM437.624 704.667H440.434V722.098C440.434 722.892 440.549 723.487 440.779 723.884C441.017 724.273 441.319 724.535 441.684 724.669C442.057 724.796 442.45 724.86 442.863 724.86C443.172 724.86 443.426 724.844 443.625 724.812C443.823 724.773 443.982 724.741 444.101 724.717L444.673 727.241C444.482 727.313 444.216 727.384 443.875 727.455C443.534 727.535 443.101 727.575 442.577 727.575C441.783 727.575 441.006 727.404 440.244 727.063C439.49 726.721 438.862 726.201 438.362 725.503C437.87 724.804 437.624 723.923 437.624 722.86V704.667ZM478.668 710.573H475.715C475.541 709.724 475.235 708.977 474.799 708.334C474.37 707.692 473.846 707.152 473.227 706.715C472.616 706.271 471.937 705.937 471.191 705.715C470.445 705.493 469.667 705.382 468.857 705.382C467.381 705.382 466.044 705.755 464.845 706.501C463.655 707.247 462.706 708.346 462 709.799C461.301 711.251 460.952 713.033 460.952 715.145C460.952 717.256 461.301 719.038 462 720.49C462.706 721.943 463.655 723.042 464.845 723.788C466.044 724.535 467.381 724.908 468.857 724.908C469.667 724.908 470.445 724.796 471.191 724.574C471.937 724.352 472.616 724.023 473.227 723.586C473.846 723.142 474.37 722.598 474.799 721.955C475.235 721.304 475.541 720.558 475.715 719.717H478.668C478.446 720.963 478.041 722.078 477.454 723.062C476.866 724.046 476.136 724.884 475.263 725.574C474.39 726.257 473.41 726.777 472.322 727.134C471.243 727.491 470.088 727.67 468.857 727.67C466.778 727.67 464.928 727.162 463.309 726.146C461.69 725.13 460.416 723.685 459.487 721.812C458.559 719.939 458.094 717.716 458.094 715.145C458.094 712.573 458.559 710.351 459.487 708.477C460.416 706.604 461.69 705.16 463.309 704.144C464.928 703.128 466.778 702.62 468.857 702.62C470.088 702.62 471.243 702.798 472.322 703.155C473.41 703.513 474.39 704.036 475.263 704.727C476.136 705.41 476.866 706.243 477.454 707.227C478.041 708.204 478.446 709.319 478.668 710.573ZM488.775 727.765C487.616 727.765 486.565 727.547 485.62 727.11C484.675 726.666 483.925 726.027 483.37 725.193C482.814 724.352 482.536 723.336 482.536 722.145C482.536 721.098 482.743 720.248 483.155 719.598C483.568 718.939 484.12 718.423 484.81 718.05C485.501 717.677 486.263 717.399 487.096 717.216C487.938 717.026 488.783 716.875 489.632 716.764C490.744 716.621 491.644 716.514 492.335 716.442C493.033 716.363 493.541 716.232 493.859 716.05C494.184 715.867 494.347 715.55 494.347 715.097V715.002C494.347 713.827 494.026 712.914 493.383 712.263C492.748 711.613 491.783 711.287 490.49 711.287C489.148 711.287 488.096 711.581 487.334 712.168C486.572 712.756 486.037 713.383 485.727 714.049L483.06 713.097C483.536 711.986 484.171 711.12 484.965 710.501C485.767 709.874 486.64 709.438 487.584 709.192C488.537 708.938 489.474 708.811 490.394 708.811C490.982 708.811 491.656 708.882 492.418 709.025C493.188 709.16 493.93 709.442 494.645 709.87C495.367 710.299 495.966 710.946 496.443 711.811C496.919 712.676 497.157 713.835 497.157 715.288V727.336H494.347V724.86H494.204C494.014 725.257 493.696 725.681 493.252 726.134C492.807 726.586 492.216 726.971 491.478 727.289C490.74 727.606 489.839 727.765 488.775 727.765ZM489.204 725.241C490.315 725.241 491.252 725.023 492.014 724.586C492.783 724.15 493.363 723.586 493.752 722.895C494.149 722.205 494.347 721.479 494.347 720.717V718.145C494.228 718.288 493.966 718.419 493.561 718.538C493.164 718.649 492.704 718.748 492.18 718.836C491.664 718.915 491.16 718.986 490.668 719.05C490.184 719.105 489.791 719.153 489.489 719.193C488.759 719.288 488.077 719.443 487.442 719.657C486.815 719.863 486.307 720.177 485.918 720.598C485.537 721.01 485.346 721.574 485.346 722.288C485.346 723.265 485.707 724.003 486.43 724.503C487.16 724.995 488.085 725.241 489.204 725.241ZM502.621 727.336V709.049H505.335V711.811H505.526C505.859 710.906 506.462 710.172 507.335 709.608C508.209 709.045 509.193 708.763 510.288 708.763C510.494 708.763 510.752 708.767 511.062 708.775C511.372 708.783 511.606 708.795 511.764 708.811V711.668C511.669 711.644 511.451 711.609 511.11 711.561C510.776 711.505 510.423 711.478 510.05 711.478C509.161 711.478 508.367 711.664 507.669 712.037C506.978 712.402 506.431 712.91 506.026 713.561C505.629 714.204 505.43 714.938 505.43 715.764V727.336H502.621ZM521.779 727.717C520.255 727.717 518.91 727.332 517.743 726.563C516.576 725.785 515.664 724.689 515.005 723.276C514.346 721.856 514.017 720.177 514.017 718.24C514.017 716.319 514.346 714.653 515.005 713.24C515.664 711.827 516.58 710.736 517.755 709.966C518.93 709.196 520.287 708.811 521.827 708.811C523.018 708.811 523.958 709.009 524.649 709.406C525.347 709.795 525.879 710.239 526.244 710.739C526.617 711.232 526.907 711.636 527.113 711.954H527.351V702.953H530.161V727.336H527.447V724.527H527.113C526.907 724.86 526.613 725.281 526.232 725.789C525.851 726.289 525.307 726.737 524.601 727.134C523.895 727.523 522.954 727.717 521.779 727.717ZM522.16 725.193C523.287 725.193 524.24 724.9 525.018 724.312C525.796 723.717 526.387 722.895 526.792 721.848C527.197 720.792 527.399 719.574 527.399 718.193C527.399 716.827 527.2 715.633 526.804 714.609C526.407 713.577 525.819 712.775 525.042 712.204C524.264 711.625 523.303 711.335 522.16 711.335C520.97 711.335 519.978 711.64 519.184 712.252C518.398 712.855 517.807 713.676 517.41 714.716C517.021 715.748 516.826 716.907 516.826 718.193C516.826 719.494 517.025 720.677 517.422 721.741C517.826 722.796 518.422 723.638 519.208 724.265C520.001 724.884 520.986 725.193 522.16 725.193ZM548.986 713.145L546.462 713.859C546.304 713.438 546.069 713.029 545.76 712.633C545.458 712.228 545.045 711.894 544.522 711.632C543.998 711.371 543.327 711.24 542.509 711.24C541.39 711.24 540.458 711.498 539.712 712.013C538.973 712.521 538.604 713.168 538.604 713.954C538.604 714.653 538.858 715.204 539.366 715.609C539.874 716.014 540.668 716.351 541.748 716.621L544.462 717.288C546.097 717.685 547.316 718.292 548.117 719.109C548.919 719.919 549.32 720.963 549.32 722.241C549.32 723.288 549.018 724.225 548.415 725.05C547.82 725.876 546.986 726.527 545.915 727.003C544.843 727.479 543.597 727.717 542.176 727.717C540.311 727.717 538.767 727.313 537.545 726.503C536.322 725.693 535.548 724.511 535.223 722.955L537.89 722.288C538.144 723.273 538.624 724.011 539.331 724.503C540.045 724.995 540.978 725.241 542.129 725.241C543.438 725.241 544.478 724.963 545.248 724.408C546.026 723.844 546.415 723.169 546.415 722.384C546.415 721.749 546.192 721.217 545.748 720.788C545.303 720.352 544.621 720.026 543.7 719.812L540.652 719.097C538.977 718.701 537.747 718.085 536.961 717.252C536.183 716.411 535.795 715.359 535.795 714.097C535.795 713.065 536.084 712.152 536.664 711.359C537.251 710.565 538.049 709.942 539.057 709.489C540.073 709.037 541.224 708.811 542.509 708.811C544.319 708.811 545.74 709.208 546.772 710.001C547.812 710.795 548.55 711.843 548.986 713.145Z" fill="#7C89A9"/>
<path d="M653.566 727.336V702.953H661.805C663.718 702.953 665.282 703.298 666.496 703.989C667.719 704.671 668.623 705.596 669.211 706.763C669.798 707.93 670.092 709.231 670.092 710.668C670.092 712.105 669.798 713.41 669.211 714.585C668.631 715.76 667.734 716.696 666.52 717.395C665.306 718.085 663.75 718.431 661.853 718.431H655.948V715.811H661.758C663.067 715.811 664.119 715.585 664.913 715.133C665.707 714.68 666.282 714.069 666.639 713.299C667.004 712.521 667.187 711.644 667.187 710.668C667.187 709.692 667.004 708.819 666.639 708.049C666.282 707.279 665.703 706.676 664.901 706.239C664.099 705.795 663.036 705.572 661.71 705.572H656.519V727.336H653.566ZM674.803 727.336V709.049H677.517V711.811H677.708C678.041 710.906 678.644 710.172 679.517 709.608C680.39 709.045 681.375 708.763 682.47 708.763C682.676 708.763 682.934 708.767 683.244 708.775C683.553 708.783 683.788 708.795 683.946 708.811V711.668C683.851 711.644 683.633 711.609 683.292 711.561C682.958 711.505 682.605 711.478 682.232 711.478C681.343 711.478 680.549 711.664 679.851 712.037C679.16 712.402 678.613 712.91 678.208 713.561C677.811 714.204 677.612 714.938 677.612 715.764V727.336H674.803ZM687.612 727.336V709.049H690.422V727.336H687.612ZM689.041 706.001C688.493 706.001 688.021 705.814 687.624 705.441C687.235 705.068 687.041 704.62 687.041 704.096C687.041 703.572 687.235 703.124 687.624 702.751C688.021 702.378 688.493 702.191 689.041 702.191C689.589 702.191 690.057 702.378 690.446 702.751C690.843 703.124 691.041 703.572 691.041 704.096C691.041 704.62 690.843 705.068 690.446 705.441C690.057 705.814 689.589 706.001 689.041 706.001ZM710.858 709.049L704.095 727.336H701.238L694.475 709.049H697.523L702.571 723.622H702.762L707.81 709.049H710.858ZM719.727 727.765C718.568 727.765 717.516 727.547 716.571 727.11C715.627 726.666 714.877 726.027 714.321 725.193C713.766 724.352 713.488 723.336 713.488 722.145C713.488 721.098 713.694 720.248 714.107 719.598C714.52 718.939 715.071 718.423 715.762 718.05C716.452 717.677 717.214 717.399 718.048 717.216C718.889 717.026 719.735 716.875 720.584 716.764C721.695 716.621 722.596 716.514 723.286 716.442C723.985 716.363 724.493 716.232 724.81 716.05C725.136 715.867 725.299 715.55 725.299 715.097V715.002C725.299 713.827 724.977 712.914 724.334 712.263C723.699 711.613 722.735 711.287 721.441 711.287C720.1 711.287 719.048 711.581 718.286 712.168C717.524 712.756 716.988 713.383 716.679 714.049L714.012 713.097C714.488 711.986 715.123 711.12 715.917 710.501C716.718 709.874 717.591 709.438 718.536 709.192C719.488 708.938 720.425 708.811 721.346 708.811C721.933 708.811 722.608 708.882 723.37 709.025C724.14 709.16 724.882 709.442 725.596 709.87C726.319 710.299 726.918 710.946 727.394 711.811C727.87 712.676 728.108 713.835 728.108 715.288V727.336H725.299V724.86H725.156C724.965 725.257 724.648 725.681 724.203 726.134C723.759 726.586 723.167 726.971 722.429 727.289C721.691 727.606 720.79 727.765 719.727 727.765ZM720.155 725.241C721.266 725.241 722.203 725.023 722.965 724.586C723.735 724.15 724.314 723.586 724.703 722.895C725.1 722.205 725.299 721.479 725.299 720.717V718.145C725.18 718.288 724.918 718.419 724.513 718.538C724.116 718.649 723.656 718.748 723.132 718.836C722.616 718.915 722.112 718.986 721.62 719.05C721.135 719.105 720.743 719.153 720.441 719.193C719.711 719.288 719.028 719.443 718.393 719.657C717.766 719.863 717.258 720.177 716.869 720.598C716.488 721.01 716.298 721.574 716.298 722.288C716.298 723.265 716.659 724.003 717.381 724.503C718.111 724.995 719.036 725.241 720.155 725.241ZM741.525 709.049V711.43H732.048V709.049H741.525ZM734.81 704.667H737.62V722.098C737.62 722.892 737.735 723.487 737.965 723.884C738.204 724.273 738.505 724.535 738.87 724.669C739.243 724.796 739.636 724.86 740.049 724.86C740.359 724.86 740.613 724.844 740.811 724.812C741.009 724.773 741.168 724.741 741.287 724.717L741.859 727.241C741.668 727.313 741.402 727.384 741.061 727.455C740.72 727.535 740.287 727.575 739.763 727.575C738.97 727.575 738.192 727.404 737.43 727.063C736.676 726.721 736.049 726.201 735.549 725.503C735.056 724.804 734.81 723.923 734.81 722.86V704.667ZM753.558 727.717C751.796 727.717 750.276 727.328 748.998 726.551C747.728 725.765 746.748 724.669 746.057 723.265C745.375 721.852 745.034 720.209 745.034 718.336C745.034 716.462 745.375 714.811 746.057 713.383C746.748 711.946 747.708 710.827 748.939 710.025C750.177 709.216 751.622 708.811 753.272 708.811C754.225 708.811 755.166 708.969 756.094 709.287C757.023 709.604 757.868 710.12 758.63 710.835C759.392 711.541 759.999 712.478 760.452 713.645C760.904 714.811 761.13 716.248 761.13 717.955V719.145H747.034V716.716H758.273C758.273 715.684 758.067 714.764 757.654 713.954C757.249 713.145 756.67 712.506 755.916 712.037C755.17 711.569 754.288 711.335 753.272 711.335C752.153 711.335 751.185 711.613 750.367 712.168C749.558 712.716 748.935 713.43 748.498 714.311C748.062 715.192 747.843 716.137 747.843 717.145V718.764C747.843 720.145 748.081 721.316 748.558 722.276C749.042 723.229 749.713 723.955 750.57 724.455C751.427 724.947 752.423 725.193 753.558 725.193C754.296 725.193 754.963 725.09 755.558 724.884C756.162 724.669 756.682 724.352 757.118 723.931C757.555 723.503 757.892 722.971 758.13 722.336L760.845 723.098C760.559 724.019 760.079 724.828 759.404 725.527C758.729 726.217 757.896 726.757 756.904 727.146C755.912 727.527 754.796 727.717 753.558 727.717Z" fill="#7C89A9"/>
<circle cx="50.2465" cy="715.494" r="11.1996" fill="#703FFB"/>
<circle cx="309.95" cy="715.494" r="11.1996" fill="#DE287A"/>
<circle cx="629.443" cy="715.494" r="11.1996" fill="#FCAE56"/>
<circle cx="401.576" cy="358.968" r="54.5046" stroke="#F0F3F9" stroke-width="11.9462"/>
<circle cx="401.577" cy="358.969" r="105.276" stroke="#F0F3F9" stroke-width="11.9462"/>
<circle cx="401.578" cy="358.971" r="156.047" stroke="#F0F3F9" stroke-width="11.9462"/>
<mask id="path-13-inside-1_1_283" fill="white">
<path d="M394.193 203.095C394.037 199.801 396.581 196.994 399.878 196.959C432.945 196.612 465.381 206.394 492.791 225.065C521.847 244.857 543.677 273.564 554.987 306.852C566.296 340.14 566.471 376.204 555.485 409.6C544.498 442.997 522.948 471.914 494.084 491.987C465.221 512.06 430.612 522.2 395.48 520.876C360.347 519.553 326.599 506.838 299.328 484.651C272.056 462.464 252.741 432.008 244.299 397.879C236.334 365.686 238.452 331.872 250.286 300.994C251.466 297.915 254.983 296.507 258.016 297.799V297.799C261.049 299.092 262.448 302.595 261.278 305.677C250.454 334.169 248.546 365.334 255.888 395.012C263.709 426.626 281.6 454.837 306.862 475.39C332.124 495.942 363.386 507.72 395.929 508.946C428.472 510.172 460.531 500.779 487.268 482.185C514.004 463.591 533.967 436.805 544.143 405.87C554.32 374.934 554.158 341.528 543.682 310.692C533.206 279.857 512.985 253.266 486.069 234.932C460.801 217.72 430.921 208.663 400.443 208.894C397.146 208.919 394.349 206.388 394.193 203.095V203.095Z"/>
</mask>
<path d="M394.193 203.095C394.037 199.801 396.581 196.994 399.878 196.959C432.945 196.612 465.381 206.394 492.791 225.065C521.847 244.857 543.677 273.564 554.987 306.852C566.296 340.14 566.471 376.204 555.485 409.6C544.498 442.997 522.948 471.914 494.084 491.987C465.221 512.06 430.612 522.2 395.48 520.876C360.347 519.553 326.599 506.838 299.328 484.651C272.056 462.464 252.741 432.008 244.299 397.879C236.334 365.686 238.452 331.872 250.286 300.994C251.466 297.915 254.983 296.507 258.016 297.799V297.799C261.049 299.092 262.448 302.595 261.278 305.677C250.454 334.169 248.546 365.334 255.888 395.012C263.709 426.626 281.6 454.837 306.862 475.39C332.124 495.942 363.386 507.72 395.929 508.946C428.472 510.172 460.531 500.779 487.268 482.185C514.004 463.591 533.967 436.805 544.143 405.87C554.32 374.934 554.158 341.528 543.682 310.692C533.206 279.857 512.985 253.266 486.069 234.932C460.801 217.72 430.921 208.663 400.443 208.894C397.146 208.919 394.349 206.388 394.193 203.095V203.095Z" stroke="#703FFB" stroke-width="23.8924" mask="url(#path-13-inside-1_1_283)"/>
<mask id="path-14-inside-2_1_283" fill="white">
<path d="M395.267 304.825C394.885 301.551 397.233 298.557 400.529 298.5C407.017 298.387 413.495 299.32 419.711 301.274C427.829 303.825 435.317 308.061 441.685 313.705C448.054 319.349 453.16 326.273 456.67 334.025C460.18 341.777 462.014 350.182 462.053 358.691C462.092 367.201 460.335 375.622 456.896 383.406C453.458 391.19 448.415 398.16 442.099 403.862C435.782 409.564 428.333 413.868 420.239 416.494C414.042 418.505 407.573 419.497 401.083 419.444C397.787 419.417 395.412 416.444 395.763 413.167V413.167C396.115 409.89 399.063 407.556 402.358 407.503C407.171 407.425 411.956 406.632 416.555 405.14C423.052 403.033 429.031 399.578 434.101 395.001C439.171 390.425 443.218 384.83 445.977 378.583C448.737 372.335 450.148 365.576 450.116 358.746C450.085 351.916 448.613 345.17 445.796 338.948C442.979 332.726 438.881 327.169 433.769 322.639C428.657 318.109 422.647 314.709 416.132 312.661C411.519 311.211 406.726 310.462 401.913 310.429C398.617 310.406 395.648 308.1 395.267 304.825V304.825Z"/>
</mask>
<path d="M395.267 304.825C394.885 301.551 397.233 298.557 400.529 298.5C407.017 298.387 413.495 299.32 419.711 301.274C427.829 303.825 435.317 308.061 441.685 313.705C448.054 319.349 453.16 326.273 456.67 334.025C460.18 341.777 462.014 350.182 462.053 358.691C462.092 367.201 460.335 375.622 456.896 383.406C453.458 391.19 448.415 398.16 442.099 403.862C435.782 409.564 428.333 413.868 420.239 416.494C414.042 418.505 407.573 419.497 401.083 419.444C397.787 419.417 395.412 416.444 395.763 413.167V413.167C396.115 409.89 399.063 407.556 402.358 407.503C407.171 407.425 411.956 406.632 416.555 405.14C423.052 403.033 429.031 399.578 434.101 395.001C439.171 390.425 443.218 384.83 445.977 378.583C448.737 372.335 450.148 365.576 450.116 358.746C450.085 351.916 448.613 345.17 445.796 338.948C442.979 332.726 438.881 327.169 433.769 322.639C428.657 318.109 422.647 314.709 416.132 312.661C411.519 311.211 406.726 310.462 401.913 310.429C398.617 310.406 395.648 308.1 395.267 304.825V304.825Z" stroke="#FCAE56" stroke-width="23.8924" mask="url(#path-14-inside-2_1_283)"/>
<mask id="path-15-inside-3_1_283" fill="white">
<path d="M394.413 253.934C394.188 250.645 396.674 247.779 399.971 247.731C416.925 247.487 433.739 251.121 449.116 258.389C466.296 266.509 481.109 278.894 492.144 294.363C503.179 309.832 510.067 327.87 512.153 346.757C514.239 365.643 511.453 384.75 504.059 402.254C496.666 419.758 484.913 435.077 469.919 446.751C454.926 458.424 437.192 466.062 418.41 468.937C399.627 471.812 380.42 469.828 362.622 463.175C346.69 457.219 332.362 447.7 320.717 435.376C318.452 432.979 318.773 429.199 321.288 427.066V427.066C323.802 424.933 327.558 425.257 329.838 427.639C340.153 438.415 352.782 446.748 366.803 451.99C382.691 457.929 399.836 459.7 416.603 457.133C433.37 454.567 449.2 447.748 462.584 437.328C475.968 426.908 486.46 413.233 493.059 397.608C499.659 381.982 502.146 364.927 500.284 348.067C498.422 331.208 492.273 315.106 482.422 301.297C472.572 287.489 459.349 276.433 444.013 269.185C430.481 262.789 415.701 259.545 400.785 259.664C397.487 259.69 394.637 257.224 394.413 253.934V253.934Z"/>
</mask>
<path d="M394.413 253.934C394.188 250.645 396.674 247.779 399.971 247.731C416.925 247.487 433.739 251.121 449.116 258.389C466.296 266.509 481.109 278.894 492.144 294.363C503.179 309.832 510.067 327.87 512.153 346.757C514.239 365.643 511.453 384.75 504.059 402.254C496.666 419.758 484.913 435.077 469.919 446.751C454.926 458.424 437.192 466.062 418.41 468.937C399.627 471.812 380.42 469.828 362.622 463.175C346.69 457.219 332.362 447.7 320.717 435.376C318.452 432.979 318.773 429.199 321.288 427.066V427.066C323.802 424.933 327.558 425.257 329.838 427.639C340.153 438.415 352.782 446.748 366.803 451.99C382.691 457.929 399.836 459.7 416.603 457.133C433.37 454.567 449.2 447.748 462.584 437.328C475.968 426.908 486.46 413.233 493.059 397.608C499.659 381.982 502.146 364.927 500.284 348.067C498.422 331.208 492.273 315.106 482.422 301.297C472.572 287.489 459.349 276.433 444.013 269.185C430.481 262.789 415.701 259.545 400.785 259.664C397.487 259.69 394.637 257.224 394.413 253.934V253.934Z" stroke="#DE287A" stroke-width="23.8924" mask="url(#path-15-inside-3_1_283)"/>
<g filter="url(#filter1_d_1_283)">
<rect x="183.97" y="209.379" width="149.328" height="68.6907" rx="8.04654" fill="white"/>
</g>
<path d="M218.459 251.31H204.017V248.199H218.459V251.31ZM214.378 243.219H203.947V240.188H214.378V243.219ZM209.638 236.758L209.958 245.329C209.998 246.216 209.851 246.982 209.518 247.629C209.191 248.269 208.615 248.796 207.788 249.209L205.148 248.199C205.474 248.153 205.724 247.983 205.898 247.689C206.071 247.396 206.188 247.049 206.248 246.649C206.308 246.242 206.331 245.856 206.318 245.489L206.018 236.758C205.971 235.405 206.228 234.268 206.788 233.348C207.354 232.421 208.125 231.724 209.098 231.258C210.071 230.784 211.148 230.547 212.328 230.547C213.342 230.547 214.248 230.701 215.049 231.007C215.855 231.314 216.532 231.741 217.079 232.288C217.632 232.834 218.036 233.468 218.289 234.188C218.549 234.908 218.632 235.685 218.539 236.518L215.069 236.228C215.115 235.621 215.015 235.125 214.769 234.738C214.528 234.345 214.195 234.058 213.768 233.878C213.348 233.691 212.898 233.598 212.418 233.598C211.925 233.598 211.465 233.711 211.038 233.938C210.618 234.164 210.278 234.511 210.018 234.978C209.765 235.445 209.638 236.038 209.638 236.758ZM230.765 230.827V251.31H227.055V234.438H226.935L222.144 237.498V234.098L227.235 230.827H230.765ZM243.316 251.59C241.876 251.59 240.596 251.343 239.476 250.85C238.363 250.356 237.483 249.669 236.836 248.789C236.189 247.909 235.846 246.892 235.806 245.739H239.566C239.599 246.292 239.783 246.776 240.116 247.189C240.449 247.596 240.893 247.913 241.446 248.139C242 248.366 242.62 248.479 243.306 248.479C244.04 248.479 244.69 248.353 245.257 248.099C245.823 247.839 246.267 247.479 246.587 247.019C246.907 246.559 247.063 246.029 247.057 245.429C247.063 244.809 246.903 244.262 246.577 243.789C246.25 243.315 245.777 242.945 245.157 242.679C244.543 242.412 243.803 242.279 242.936 242.279H241.126V239.418H242.936C243.65 239.418 244.273 239.295 244.807 239.048C245.347 238.802 245.77 238.455 246.077 238.008C246.383 237.555 246.533 237.031 246.527 236.438C246.533 235.858 246.403 235.355 246.137 234.928C245.877 234.495 245.507 234.158 245.027 233.918C244.553 233.678 243.997 233.558 243.356 233.558C242.73 233.558 242.15 233.671 241.616 233.898C241.083 234.124 240.653 234.448 240.326 234.868C239.999 235.281 239.826 235.775 239.806 236.348H236.236C236.262 235.201 236.592 234.194 237.226 233.328C237.866 232.454 238.719 231.774 239.786 231.288C240.853 230.794 242.05 230.547 243.376 230.547C244.743 230.547 245.93 230.804 246.937 231.318C247.95 231.824 248.734 232.508 249.287 233.368C249.84 234.228 250.117 235.178 250.117 236.218C250.124 237.371 249.784 238.338 249.097 239.118C248.417 239.898 247.524 240.408 246.417 240.648V240.808C247.857 241.009 248.96 241.542 249.727 242.409C250.501 243.269 250.884 244.339 250.877 245.619C250.877 246.766 250.551 247.793 249.897 248.699C249.25 249.599 248.357 250.306 247.217 250.82C246.083 251.333 244.783 251.59 243.316 251.59ZM257.995 248.509L257.865 249.609C257.772 250.449 257.605 251.303 257.365 252.17C257.132 253.043 256.885 253.846 256.625 254.58C256.365 255.313 256.155 255.89 255.995 256.31H253.555C253.648 255.903 253.775 255.35 253.935 254.65C254.102 253.95 254.262 253.163 254.415 252.29C254.568 251.416 254.672 250.529 254.725 249.629L254.795 248.509H257.995ZM268.522 251.59C267.035 251.59 265.715 251.34 264.561 250.84C263.414 250.339 262.514 249.656 261.861 248.789C261.214 247.916 260.894 246.926 260.901 245.819C260.894 244.959 261.081 244.169 261.461 243.449C261.841 242.729 262.354 242.129 263.001 241.649C263.654 241.162 264.381 240.852 265.181 240.718V240.578C264.128 240.345 263.274 239.808 262.621 238.968C261.974 238.122 261.654 237.145 261.661 236.038C261.654 234.985 261.948 234.044 262.541 233.218C263.134 232.391 263.948 231.741 264.981 231.268C266.015 230.787 267.195 230.547 268.522 230.547C269.835 230.547 271.005 230.787 272.032 231.268C273.065 231.741 273.879 232.391 274.472 233.218C275.072 234.044 275.372 234.985 275.372 236.038C275.372 237.145 275.042 238.122 274.382 238.968C273.729 239.808 272.885 240.345 271.852 240.578V240.718C272.652 240.852 273.372 241.162 274.012 241.649C274.659 242.129 275.172 242.729 275.552 243.449C275.939 244.169 276.132 244.959 276.132 245.819C276.132 246.926 275.806 247.916 275.152 248.789C274.499 249.656 273.599 250.339 272.452 250.84C271.312 251.34 270.002 251.59 268.522 251.59ZM268.522 248.729C269.288 248.729 269.955 248.599 270.522 248.339C271.088 248.073 271.528 247.699 271.842 247.219C272.155 246.739 272.315 246.186 272.322 245.559C272.315 244.906 272.145 244.329 271.812 243.829C271.485 243.322 271.035 242.925 270.462 242.639C269.895 242.352 269.248 242.209 268.522 242.209C267.788 242.209 267.135 242.352 266.561 242.639C265.988 242.925 265.535 243.322 265.201 243.829C264.874 244.329 264.714 244.906 264.721 245.559C264.714 246.186 264.868 246.739 265.181 247.219C265.495 247.693 265.935 248.063 266.501 248.329C267.075 248.596 267.748 248.729 268.522 248.729ZM268.522 239.398C269.148 239.398 269.702 239.272 270.182 239.018C270.668 238.765 271.052 238.412 271.332 237.958C271.612 237.505 271.755 236.981 271.762 236.388C271.755 235.801 271.615 235.288 271.342 234.848C271.068 234.401 270.688 234.058 270.202 233.818C269.715 233.571 269.155 233.448 268.522 233.448C267.875 233.448 267.305 233.571 266.811 233.818C266.325 234.058 265.945 234.401 265.671 234.848C265.405 235.288 265.275 235.801 265.281 236.388C265.275 236.981 265.408 237.505 265.681 237.958C265.961 238.405 266.345 238.758 266.831 239.018C267.325 239.272 267.888 239.398 268.522 239.398ZM286.771 251.59C285.331 251.59 284.051 251.343 282.93 250.85C281.817 250.356 280.937 249.669 280.29 248.789C279.643 247.909 279.3 246.892 279.26 245.739H283.02C283.054 246.292 283.237 246.776 283.571 247.189C283.904 247.596 284.347 247.913 284.901 248.139C285.454 248.366 286.074 248.479 286.761 248.479C287.494 248.479 288.144 248.353 288.711 248.099C289.278 247.839 289.721 247.479 290.041 247.019C290.361 246.559 290.518 246.029 290.511 245.429C290.518 244.809 290.358 244.262 290.031 243.789C289.704 243.315 289.231 242.945 288.611 242.679C287.998 242.412 287.258 242.279 286.391 242.279H284.581V239.418H286.391C287.104 239.418 287.728 239.295 288.261 239.048C288.801 238.802 289.224 238.455 289.531 238.008C289.838 237.555 289.988 237.031 289.981 236.438C289.988 235.858 289.858 235.355 289.591 234.928C289.331 234.495 288.961 234.158 288.481 233.918C288.008 233.678 287.451 233.558 286.811 233.558C286.184 233.558 285.604 233.671 285.071 233.898C284.537 234.124 284.107 234.448 283.781 234.868C283.454 235.281 283.281 235.775 283.261 236.348H279.69C279.717 235.201 280.047 234.194 280.68 233.328C281.32 232.454 282.174 231.774 283.241 231.288C284.307 230.794 285.504 230.547 286.831 230.547C288.198 230.547 289.384 230.804 290.391 231.318C291.405 231.824 292.188 232.508 292.741 233.368C293.295 234.228 293.572 235.178 293.572 236.218C293.578 237.371 293.238 238.338 292.551 239.118C291.871 239.898 290.978 240.408 289.871 240.648V240.808C291.311 241.009 292.415 241.542 293.182 242.409C293.955 243.269 294.338 244.339 294.332 245.619C294.332 246.766 294.005 247.793 293.352 248.699C292.705 249.599 291.811 250.306 290.671 250.82C289.538 251.333 288.238 251.59 286.771 251.59ZM297.764 251.31V248.629L304.875 241.659C305.555 240.972 306.122 240.362 306.575 239.828C307.029 239.295 307.369 238.778 307.595 238.278C307.822 237.778 307.936 237.245 307.936 236.678C307.936 236.031 307.789 235.478 307.495 235.018C307.202 234.551 306.799 234.191 306.285 233.938C305.772 233.684 305.189 233.558 304.535 233.558C303.862 233.558 303.272 233.698 302.765 233.978C302.258 234.251 301.865 234.641 301.585 235.148C301.312 235.655 301.175 236.258 301.175 236.958H297.644C297.644 235.658 297.941 234.528 298.535 233.568C299.128 232.608 299.945 231.864 300.985 231.338C302.032 230.811 303.232 230.547 304.585 230.547C305.959 230.547 307.165 230.804 308.206 231.318C309.246 231.831 310.052 232.534 310.626 233.428C311.206 234.321 311.496 235.341 311.496 236.488C311.496 237.255 311.349 238.008 311.056 238.748C310.762 239.488 310.246 240.308 309.506 241.209C308.772 242.109 307.742 243.199 306.415 244.479L302.885 248.069V248.209H311.806V251.31H297.764Z" fill="#6A35FF"/>
<defs>
<filter id="filter0_d_1_283" x="0.825903" y="0.322437" width="761.846" height="818.59" filterUnits="userSpaceOnUse" color-interpolation-filters="sRGB">
<feFlood flood-opacity="0" result="BackgroundImageFix"/>
<feColorMatrix in="SourceAlpha" type="matrix" values="0 0 0 0 0 0 0 0 0 0 0 0 0 0 0 0 0 0 127 0" result="hardAlpha"/>
<feMorphology radius="50.2908" operator="erode" in="SourceAlpha" result="effect1_dropShadow_1_283"/>
<feOffset dx="-16.0931" dy="60.349"/>
<feGaussianBlur stdDeviation="80.4654"/>
<feColorMatrix type="matrix" values="0 0 0 0 0.320833 0 0 0 0 0.320833 0 0 0 0 0.320833 0 0 0 0.1 0"/>
<feBlend mode="normal" in2="BackgroundImageFix" result="effect1_dropShadow_1_283"/>
<feBlend mode="normal" in="SourceGraphic" in2="effect1_dropShadow_1_283" result="shape"/>
</filter>
<filter id="filter1_d_1_283" x="143.738" y="189.263" width="270.026" height="189.389" filterUnits="userSpaceOnUse" color-interpolation-filters="sRGB">
<feFlood flood-opacity="0" result="BackgroundImageFix"/>
<feColorMatrix in="SourceAlpha" type="matrix" values="0 0 0 0 0 0 0 0 0 0 0 0 0 0 0 0 0 0 127 0" result="hardAlpha"/>
<feOffset dx="20.1163" dy="40.2327"/>
<feGaussianBlur stdDeviation="30.1745"/>
<feColorMatrix type="matrix" values="0 0 0 0 0 0 0 0 0 0 0 0 0 0 0 0 0 0 0.04 0"/>
<feBlend mode="normal" in2="BackgroundImageFix" result="effect1_dropShadow_1_283"/>
<feBlend mode="normal" in="SourceGraphic" in2="effect1_dropShadow_1_283" result="shape"/>
</filter>
</defs>
</svg>
