<svg width="31" height="31" viewBox="0 0 31 31" fill="none" xmlns="http://www.w3.org/2000/svg">
<path fill-rule="evenodd" clip-rule="evenodd" d="M28.6001 15.2199C28.6001 18.5983 27.2581 21.8384 24.8692 24.2273C22.4802 26.6162 19.2402 27.9583 15.8618 27.9583C12.4833 27.9583 9.24327 26.6162 6.85435 24.2273C4.46544 21.8384 3.12337 18.5983 3.12337 15.2199C3.12337 11.8415 4.46544 8.60142 6.85435 6.21251C9.24327 3.8236 12.4833 2.48152 15.8618 2.48152C19.2402 2.48152 22.4802 3.8236 24.8692 6.21251C27.2581 8.60142 28.6001 11.8415 28.6001 15.2199ZM30.9591 15.2199C30.9591 19.224 29.3685 23.064 26.5372 25.8953C23.7059 28.7267 19.8658 30.3173 15.8618 30.3173C11.8577 30.3173 8.01762 28.7267 5.18632 25.8953C2.35501 23.064 0.764404 19.224 0.764404 15.2199C0.764404 11.2158 2.35501 7.37577 5.18632 4.54447C8.01762 1.71317 11.8577 0.122559 15.8618 0.122559C19.8658 0.122559 23.7059 1.71317 26.5372 4.54447C29.3685 7.37577 30.9591 11.2158 30.9591 15.2199ZM14.8616 10.5586L18.1075 13.8045H8.31308V16.6353H18.1075L14.8616 19.8812L16.862 21.8816L22.5235 16.2201C22.7885 15.9547 22.9374 15.595 22.9374 15.2199C22.9374 14.8448 22.7885 14.4851 22.5235 14.2197L16.862 8.5582L14.8616 10.5586Z" fill="#42424A"/>
</svg>
